<svg xmlns="http://www.w3.org/2000/svg" width="160.01510620117188" height="242.71189880371094" viewBox="0.9187755584716797 -21.0073184967041 160.01510620117188 242.71189880371094"><title>Neo4j Graph Visualization</title><desc>Created using Neo4j (http://www.neo4j.com/)</desc><g class="layer relationships"><g class="relationship" transform="translate(131.9338836200799 7.9926811664314314) rotate(519.5359043737569)"><path class="outline" fill="#A5ABB6" stroke="none" d="M 21.40063509461097,12.933012701892217 L 21.90063509461097,12.06698729810778 A 59.93609682517627 59.93609682517627 0 0 0 23.468987544166573,12.941416547781472 L 22.99515462098057,13.822031310833403 A 60.93609682517627 60.93609682517627 0 0 1 21.40063509461097,12.933012701892217 Z M 77.38137957365076,15.498949334833263 L 76.96270004877658,14.590815283356754 A 59.93609682517627 59.93609682517627 0 0 0 78.58194547270809,13.814670853634553 L 77.24485830584966,11.12911729650289 L 85.07108496715836,11.142393057153516 L 80.36472836185264,17.395408929810102 L 79.02764119499422,14.70985537267844 A 60.93609682517627 60.93609682517627 0 0 1 77.38137957365076,15.498949334833263"/><text text-anchor="middle" pointer-events="none" font-size="8px" fill="#000000" x="50.006111886975596" y="23.56819368344602" transform="rotate(180 50.006111886975596 20.56819368344602)" font-family="sans-serif">PublicTrans…</text></g><g class="relationship" transform="translate(31.264242064811036 45.559631503482116) rotate(450.7224149591991)"><path class="outline" fill="#A5ABB6" stroke="none" d="M 25 0.5 L 40.18886319441673 0.5 L 40.18886319441673 -0.5 L 25 -0.5 Z M 59.52480069441673 0.5 L 74.71366388883347 0.5 L 74.71366388883347 3.5 L 81.71366388883347 0 L 74.71366388883347 -3.5 L 74.71366388883347 -0.5 L 59.52480069441673 -0.5 Z"/><text text-anchor="middle" pointer-events="none" font-size="8px" fill="#000000" x="49.85683194441673" y="3" transform="rotate(180 49.85683194441673 0)" font-family="sans-serif">trek</text></g><g class="relationship" transform="translate(29.918776391530777 152.26481311478412) rotate(382.11327964975465)"><path class="outline" fill="#A5ABB6" stroke="none" d="M 25 0.5 L 40.545588375368425 0.5 L 40.545588375368425 -0.5 L 25 -0.5 Z M 59.881525875368425 0.5 L 75.42711425073685 0.5 L 75.42711425073685 3.5 L 82.42711425073685 0 L 75.42711425073685 -3.5 L 75.42711425073685 -0.5 L 59.881525875368425 -0.5 Z"/><text text-anchor="middle" pointer-events="none" font-size="8px" fill="#000000" x="50.213557125368425" y="3" font-family="sans-serif">trek</text></g><g class="relationship" transform="translate(131.9338836200799 7.9926811664314314) rotate(519.5359043737569)"><path class="outline" fill="#A5ABB6" stroke="none" d="M 25 0.5 L 40.55738022162779 0.5 L 40.55738022162779 -0.5 L 25 -0.5 Z M 59.89331772162779 0.5 L 75.45069794325558 0.5 L 75.45069794325558 3.5 L 82.45069794325558 0 L 75.45069794325558 -3.5 L 75.45069794325558 -0.5 L 59.89331772162779 -0.5 Z"/><text text-anchor="middle" pointer-events="none" font-size="8px" fill="#000000" x="50.22534897162779" y="3" transform="rotate(180 50.22534897162779 0)" font-family="sans-serif">trek</text></g><g class="relationship" transform="translate(131.9338836200799 7.9926811664314314) rotate(519.5359043737569)"><path class="outline" fill="#A5ABB6" stroke="none" d="M 21.40063509461097,-12.933012701892217 L 21.90063509461097,-12.06698729810778 A 59.93609682517627 59.93609682517627 0 0 1 39.202644142221054,-18.743286435520105 L 38.99131841305449,-19.720702128146442 A 60.93609682517627 60.93609682517627 0 0 0 21.40063509461097,-12.933012701892217 Z M 61.05219424600159,-20.400916287921028 L 60.901487009777554,-19.4123378494804 A 59.93609682517627 59.93609682517627 0 0 1 78.58194547270809,-13.814670853634553 L 77.24485830584966,-11.12911729650289 L 85.07108496715836,-11.142393057153516 L 80.36472836185264,-17.395408929810102 L 79.02764119499422,-14.70985537267844 A 60.93609682517627 60.93609682517627 0 0 0 61.05219424600159,-20.400916287921028"/><text text-anchor="middle" pointer-events="none" font-size="8px" fill="#000000" x="50.00611188697559" y="-17.56819368344602" transform="rotate(180 50.00611188697559 -20.56819368344602)" font-family="sans-serif">road</text></g></g><g class="layer nodes"><g class="node" transform="translate(131.9338836200799,7.9926811664314314)"><circle class="outline" cx="0" cy="0" r="25" fill="#F16667" stroke="#eb2728" stroke-width="2px"/><text text-anchor="middle" pointer-events="none" font-family="sans-serif" dy="1.5625" font-size="25" fill="#FFFFFF"/><text text-anchor="middle" pointer-events="none" x="0" y="5" font-size="10px" fill="#FFFFFF" font-family="sans-serif"> Darjeeling</text></g><g class="node" transform="translate(129.44370328192346,192.70456835270386)"><circle class="outline" cx="0" cy="0" r="25" fill="#D9C8AE" stroke="#c0a378" stroke-width="2px"/><text text-anchor="middle" pointer-events="none" font-family="sans-serif" dy="1.5625" font-size="25" fill="#2A2C34"/><text text-anchor="middle" pointer-events="none" x="0" y="5" font-size="10px" fill="#2A2C34" font-family="sans-serif"> Sandak…</text></g><g class="node" transform="translate(31.264242064811036,45.559631503482116)"><circle class="outline" cx="0" cy="0" r="25" fill="#F16667" stroke="#eb2728" stroke-width="2px"/><text text-anchor="middle" pointer-events="none" font-family="sans-serif" dy="1.5625" font-size="25" fill="#FFFFFF"/><text text-anchor="middle" pointer-events="none" x="0" y="5" font-size="10px" fill="#FFFFFF" font-family="sans-serif"> Rimbik</text></g><g class="node" transform="translate(29.918776391530777,152.26481311478412)"><circle class="outline" cx="0" cy="0" r="25" fill="#8DCC93" stroke="#5db665" stroke-width="2px"/><text text-anchor="middle" pointer-events="none" font-family="sans-serif" dy="1.5625" font-size="25" fill="#2A2C34"/><text text-anchor="middle" pointer-events="none" x="0" y="5" font-size="10px" fill="#2A2C34" font-family="sans-serif"> BhikeBh…</text></g></g></svg>