<svg xmlns="http://www.w3.org/2000/svg" width="268.0347900390625" height="289.8816833496094" viewBox="-30.630229949951172 -40.67115020751953 268.0347900390625 289.8816833496094"><title>Neo4j Graph Visualization</title><desc>Created using Neo4j (http://www.neo4j.com/)</desc><g class="layer relationships"><g class="relationship" transform="translate(115.23076803662313 -11.671151634230544) rotate(390.8499362346733)"><path class="outline" fill="#A5ABB6" stroke="none" d="M 25 0.5 L 33.54196882118518 0.5 L 33.54196882118518 -0.5 L 25 -0.5 Z M 67.98728132118518 0.5 L 76.52925014237036 0.5 L 76.52925014237036 3.5 L 83.52925014237036 0 L 76.52925014237036 -3.5 L 76.52925014237036 -0.5 L 67.98728132118518 -0.5 Z"/><text text-anchor="middle" pointer-events="none" font-size="8px" fill="#000000" x="50.76462507118518" y="3" font-family="sans-serif">ORIGIN</text></g><g class="relationship" transform="translate(115.23076803662313 -11.671151634230544) rotate(509.13509802378115)"><path class="outline" fill="#A5ABB6" stroke="none" d="M 25 0.5 L 26.06363528266344 0.5 L 26.06363528266344 -0.5 L 25 -0.5 Z M 74.73551028266344 0.5 L 75.79914556532688 0.5 L 75.79914556532688 3.5 L 82.79914556532688 0 L 75.79914556532688 -3.5 L 75.79914556532688 -0.5 L 74.73551028266344 -0.5 Z"/><text text-anchor="middle" pointer-events="none" font-size="8px" fill="#000000" x="50.39957278266344" y="3" transform="rotate(180 50.39957278266344 0)" font-family="sans-serif">DESTINA…</text></g><g class="relationship" transform="translate(-1.630230618102613 148.5708370016985) rotate(283.0524894293762)"><path class="outline" fill="#A5ABB6" stroke="none" d="M 25 0.5 L 33.138602766012454 0.5 L 33.138602766012454 -0.5 L 25 -0.5 Z M 67.58391526601245 0.5 L 75.72251803202491 0.5 L 75.72251803202491 3.5 L 82.72251803202491 0 L 75.72251803202491 -3.5 L 75.72251803202491 -0.5 L 67.58391526601245 -0.5 Z"/><text text-anchor="middle" pointer-events="none" font-size="8px" fill="#000000" x="50.361259016012454" y="3" font-family="sans-serif">ORIGIN</text></g><g class="relationship" transform="translate(-1.630230618102613 148.5708370016985) rotate(401.35696532622546)"><path class="outline" fill="#A5ABB6" stroke="none" d="M 25 0.5 L 26.375091429141094 0.5 L 26.375091429141094 -0.5 L 25 -0.5 Z M 75.0469664291411 0.5 L 76.42205785828219 0.5 L 76.42205785828219 3.5 L 83.42205785828219 0 L 76.42205785828219 -3.5 L 76.42205785828219 -0.5 L 75.0469664291411 -0.5 Z"/><text text-anchor="middle" pointer-events="none" font-size="8px" fill="#000000" x="50.711028929141094" y="3" font-family="sans-serif">DESTINA…</text></g></g><g class="layer nodes"><g class="node" transform="translate(208.40457260546333,43.981703446463854)"><circle class="outline" cx="0" cy="0" r="25" fill="#ECB5C9" stroke="#da7298" stroke-width="2px"/><text text-anchor="middle" pointer-events="none" font-family="sans-serif" dy="1.5625" font-size="25" fill="#2A2C34"/><text text-anchor="middle" pointer-events="none" x="0" y="5" font-size="10px" fill="#2A2C34" font-family="sans-serif"> MSN</text></g><g class="node" transform="translate(79.75218646066527,220.21052447060194)"><circle class="outline" cx="0" cy="0" r="25" fill="#ECB5C9" stroke="#da7298" stroke-width="2px"/><text text-anchor="middle" pointer-events="none" font-family="sans-serif" dy="1.5625" font-size="25" fill="#2A2C34"/><text text-anchor="middle" pointer-events="none" x="0" y="5" font-size="10px" fill="#2A2C34" font-family="sans-serif"> GRR</text></g><g class="node" transform="translate(115.23076803662313,-11.671151634230544)"><circle class="outline" cx="0" cy="0" r="25" fill="#4C8EDA" stroke="#2870c2" stroke-width="2px"/><text text-anchor="middle" pointer-events="none" font-family="sans-serif" dy="1.5625" font-size="25" fill="#FFFFFF"/><text text-anchor="middle" pointer-events="none" x="0" y="5" font-size="10px" fill="#FFFFFF" font-family="sans-serif"> 11/30/20…</text></g><g class="node" transform="translate(22.698209929404598,43.631483698534204)"><circle class="outline" cx="0" cy="0" r="25" fill="#ECB5C9" stroke="#da7298" stroke-width="2px"/><text text-anchor="middle" pointer-events="none" font-family="sans-serif" dy="1.5625" font-size="25" fill="#2A2C34"/><text text-anchor="middle" pointer-events="none" x="0" y="5" font-size="10px" fill="#2A2C34" font-family="sans-serif"> ORD</text></g><g class="node" transform="translate(-1.630230618102613,148.5708370016985)"><circle class="outline" cx="0" cy="0" r="25" fill="#4C8EDA" stroke="#2870c2" stroke-width="2px"/><text text-anchor="middle" pointer-events="none" font-family="sans-serif" dy="1.5625" font-size="25" fill="#FFFFFF"/><text text-anchor="middle" pointer-events="none" x="0" y="5" font-size="10px" fill="#FFFFFF" font-family="sans-serif"> 11/17/20…</text></g></g></svg>