<svg xmlns="http://www.w3.org/2000/svg" width="386.8729248046875" height="418.3924255371094" viewBox="-90.62815856933594 -122.20486450195312 386.8729248046875 418.3924255371094"><title>Neo4j Graph Visualization</title><desc>Created using Neo4j (http://www.neo4j.com/)</desc><g class="layer relationships"><g class="relationship" transform="translate(96.067159543531 -93.20486614898209) rotate(383.9836452614637)"><path class="outline" fill="#A5ABB6" stroke="none" d="M 24.018736134675446,-6.953439040707552 L 24.277555179777966,-5.987513214418485 A 106.17417188972391 106.17417188972391 0 0 1 39.145764967103375,-8.853622357272585 L 39.026981954518895,-9.846542593707184 A 107.17417188972391 107.17417188972391 0 0 0 24.018736134675446,-6.953439040707552 Z M 61.099872804056666,-10.197342478747274 L 61.012702362927975,-9.201149066706506 A 106.17417188972391 106.17417188972391 0 0 1 75.96448115023,-6.8089628293378635 L 75.28050044880635,-3.8879749142515974 L 82.89411640233523,-5.699839178530395 L 76.87645541879488,-10.70361338278622 L 76.19247471737123,-7.782625467699953 A 107.17417188972391 107.17417188972391 0 0 0 61.099872804056666,-10.197342478747274"/><text text-anchor="middle" pointer-events="none" font-size="8px" fill="#000000" x="50.062316497234015" y="-7.091841015004519" font-family="sans-serif">road</text></g><g class="relationship" transform="translate(194.0442761923978 -49.616149894810036) rotate(408.9189037034817)"><path class="outline" fill="#A5ABB6" stroke="none" d="M 21.40063509461097,-12.933012701892217 L 21.90063509461097,-12.06698729810778 A 64.0116326793567 64.0116326793567 0 0 1 29.574885672607653,-15.838246528904769 L 29.194774046904215,-16.763187149704336 A 65.0116326793567 65.0116326793567 0 0 0 21.40063509461097,-12.933012701892217 Z M 74.99382313308985,-18.127914309623073 L 74.66946007943751,-17.18198164318992 A 64.0116326793567 64.0116326793567 0 0 1 82.55464809816515,-13.874364974186665 L 81.21200791865066,-11.191583330378641 L 89.03824529696962,-11.18866816262084 L 84.34483500418447,-17.451407165930696 L 83.00219482466998,-14.768625522122672 A 65.0116326793567 65.0116326793567 0 0 0 74.99382313308985,-18.127914309623073"/><text text-anchor="middle" pointer-events="none" font-size="8px" fill="#000000" x="51.984976687772395" y="-18.114298090476467" font-family="sans-serif">twowheeler</text></g><g class="relationship" transform="translate(267.2447338072374 34.351018311665776) rotate(494.7666638613066)"><path class="outline" fill="#A5ABB6" stroke="none" d="M 21.40063509461097,12.933012701892217 L 21.90063509461097,12.06698729810778 A 67.42063310588652 67.42063310588652 0 0 0 42.810814735761305,19.873403812217447 L 42.62095984532013,20.855215973771564 A 68.42063310588652 68.42063310588652 0 0 1 21.40063509461097,12.933012701892217 Z M 64.68854373653137,21.494788792049206 L 64.55587042327907,20.503628970450976 A 67.42063310588652 67.42063310588652 0 0 0 85.88306966413421,13.92135550622835 L 84.53605837298971,11.24076591035038 L 92.36228060304023,11.22509409287084 L 87.67908471899355,17.495474967398977 L 86.33207342784905,14.814885371521006 A 68.42063310588652 68.42063310588652 0 0 1 64.68854373653137,21.494788792049206"/><text text-anchor="middle" pointer-events="none" font-size="8px" fill="#000000" x="53.64327100218922" y="24.57113126978649" transform="rotate(180 53.64327100218922 21.57113126978649)" font-family="sans-serif">road</text></g><g class="relationship" transform="translate(186.47018577771055 115.78616636638752) rotate(472.305754958496)"><path class="outline" fill="#A5ABB6" stroke="none" d="M 25 0.5 L 48.758085900199106 0.5 L 48.758085900199106 -0.5 L 25 -0.5 Z M 68.0940234001991 0.5 L 91.85210930039821 0.5 L 91.85210930039821 3.5 L 98.85210930039821 0 L 91.85210930039821 -3.5 L 91.85210930039821 -0.5 L 68.0940234001991 -0.5 Z"/><text text-anchor="middle" pointer-events="none" font-size="8px" fill="#000000" x="58.426054650199106" y="3" transform="rotate(180 58.426054650199106 0)" font-family="sans-serif">trek</text></g><g class="relationship" transform="translate(96.067159543531 -93.20486614898209) rotate(383.9836452614637)"><path class="outline" fill="#A5ABB6" stroke="none" d="M 24.018736134675446,6.953439040707552 L 24.277555179777966,5.987513214418485 A 106.17417188972391 106.17417188972391 0 0 0 40.46891433806676,9.00350075668183 L 40.36259338991296,9.997832620791442 A 107.17417188972391 107.17417188972391 0 0 1 24.018736134675446,6.953439040707552 Z M 59.76012827023371,10.306113627228797 L 59.685458457849805,9.30890531442823 A 106.17417188972391 106.17417188972391 0 0 0 75.96448115023,6.8089628293378635 L 75.28050044880635,3.8879749142515974 L 82.89411640233523,5.699839178530395 L 76.87645541879488,10.70361338278622 L 76.19247471737123,7.782625467699953 A 107.17417188972391 107.17417188972391 0 0 1 59.76012827023371,10.306113627228797"/><text text-anchor="middle" pointer-events="none" font-size="8px" fill="#000000" x="50.06231649723402" y="13.091841015004519" font-family="sans-serif">trek</text></g><g class="relationship" transform="translate(194.0442761923978 -49.616149894810036) rotate(408.9189037034817)"><path class="outline" fill="#A5ABB6" stroke="none" d="M 25 0.5 L 42.52941074768493 0.5 L 42.52941074768493 -0.5 L 25 -0.5 Z M 61.86534824768493 0.5 L 79.39475899536986 0.5 L 79.39475899536986 3.5 L 86.39475899536986 0 L 79.39475899536986 -3.5 L 79.39475899536986 -0.5 L 61.86534824768493 -0.5 Z"/><text text-anchor="middle" pointer-events="none" font-size="8px" fill="#000000" x="52.19737949768493" y="3" font-family="sans-serif">trek</text></g><g class="relationship" transform="translate(194.0442761923978 -49.616149894810036) rotate(408.9189037034817)"><path class="outline" fill="#A5ABB6" stroke="none" d="M 21.40063509461097,12.933012701892217 L 21.90063509461097,12.06698729810778 A 64.0116326793567 64.0116326793567 0 0 0 41.16470865189196,19.36195845960126 L 40.965655101012814,20.341947073760835 A 65.0116326793567 65.0116326793567 0 0 1 21.40063509461097,12.933012701892217 Z M 63.03073529756241,20.999445751808693 L 62.89038681703316,20.0093435833366 A 64.0116326793567 64.0116326793567 0 0 0 82.55464809816515,13.874364974186665 L 81.21200791865066,11.191583330378641 L 89.03824529696962,11.18866816262084 L 84.34483500418447,17.451407165930696 L 83.00219482466998,14.768625522122672 A 65.0116326793567 65.0116326793567 0 0 1 63.03073529756241,20.999445751808693"/><text text-anchor="middle" pointer-events="none" font-size="8px" fill="#000000" x="51.9849766877724" y="24.114298090476467" font-family="sans-serif">road</text></g><g class="relationship" transform="translate(267.2447338072374 34.351018311665776) rotate(494.7666638613066)"><path class="outline" fill="#A5ABB6" stroke="none" d="M 25 0.5 L 44.18229486767832 0.5 L 44.18229486767832 -0.5 L 25 -0.5 Z M 63.51823236767832 0.5 L 82.70052723535665 0.5 L 82.70052723535665 3.5 L 89.70052723535665 0 L 82.70052723535665 -3.5 L 82.70052723535665 -0.5 L 63.51823236767832 -0.5 Z"/><text text-anchor="middle" pointer-events="none" font-size="8px" fill="#000000" x="53.85026361767832" y="3" transform="rotate(180 53.85026361767832 0)" font-family="sans-serif">trek</text></g><g class="relationship" transform="translate(267.2447338072374 34.351018311665776) rotate(494.7666638613066)"><path class="outline" fill="#A5ABB6" stroke="none" d="M 21.40063509461097,-12.933012701892217 L 21.90063509461097,-12.06698729810778 A 67.42063310588652 67.42063310588652 0 0 1 31.166077945519795,-16.512038351067126 L 30.803505353481942,-17.443993884074445 A 68.42063310588652 68.42063310588652 0 0 0 21.40063509461097,-12.933012701892217 Z M 76.68372722098984,-18.77371547696221 L 76.37573861262919,-17.82232543228018 A 67.42063310588652 67.42063310588652 0 0 1 85.88306966413421,-13.92135550622835 L 84.53605837298971,-11.24076591035038 L 92.36228060304023,-11.22509409287084 L 87.67908471899355,-17.495474967398977 L 86.33207342784905,-14.814885371521006 A 68.42063310588652 68.42063310588652 0 0 0 76.68372722098984,-18.77371547696221"/><text text-anchor="middle" pointer-events="none" font-size="8px" fill="#000000" x="53.643271002189216" y="-18.57113126978649" transform="rotate(180 53.643271002189216 -21.57113126978649)" font-family="sans-serif">twowheeler</text></g><g class="relationship" transform="translate(96.067159543531 -93.20486614898209) rotate(447.2005999985553)"><path class="outline" fill="#A5ABB6" stroke="none" d="M 21.40063509461097,12.933012701892217 L 21.90063509461097,12.06698729810778 A 65.8749367851501 65.8749367851501 0 0 0 23.584708138199815,13.006691467800856 L 23.11027283891568,13.886981844206943 A 66.8749367851501 66.8749367851501 0 0 1 21.40063509461097,12.933012701892217 Z M 83.05903924227451,15.646291283998806 L 82.63704354236447,14.739693451849703 A 65.8749367851501 65.8749367851501 0 0 0 84.37332561769547,13.900366044001393 L 83.0282667726219,11.218796223301332 L 90.85449834017454,11.208823708946406 L 86.1667374111269,17.475792471601473 L 84.82167856605334,14.794222650901412 A 66.8749367851501 66.8749367851501 0 0 1 83.05903924227451,15.646291283998806"/><text text-anchor="middle" pointer-events="none" font-size="8px" fill="#000000" x="52.89104423816796" y="24.363991443305295" font-family="sans-serif">PublicTransport</text></g><g class="relationship" transform="translate(101.59581408988115 19.86095892212971) rotate(516.4136907583763)"><path class="outline" fill="#A5ABB6" stroke="none" d="M 24.018736134675446,-6.953439040707552 L 24.277555179777966,-5.987513214418485 A 142.53412002875788 142.53412002875788 0 0 1 36.19436463039597,-8.639338165931292 L 36.01915229958904,-9.623868835404437 A 143.53412002875788 143.53412002875788 0 0 0 24.018736134675446,-6.953439040707552 Z M 82.43731731236187,-10.259637731489676 L 82.28913500359826,-9.270677669925277 A 142.53412002875788 142.53412002875788 0 0 1 94.27410231280112,-6.946224690589425 L 93.57730068482658,-4.02826864375595 L 101.19880002674165,-5.806680233121096 L 95.2031711501005,-10.83683275303406 L 94.50636952212596,-7.918876706200583 A 143.53412002875788 143.53412002875788 0 0 0 82.43731731236187,-10.259637731489676"/><text text-anchor="middle" pointer-events="none" font-size="8px" fill="#000000" x="59.20920922574821" y="-8.330831182491522" transform="rotate(180 59.20920922574821 -11.330831182491522)" font-family="sans-serif">twowheeler</text></g><g class="relationship" transform="translate(-13.433549787542887 70.08332324968738) rotate(420.3902379445347)"><path class="outline" fill="#A5ABB6" stroke="none" d="M 24.018736134675446,-6.953439040707552 L 24.277555179777966,-5.987513214418485 A 115.3311872235198 115.3311872235198 0 0 1 29.42628939169337,-7.241077640623388 L 29.212113381453022,-8.217872724884927 A 116.3311872235198 116.3311872235198 0 0 0 24.018736134675446,-6.953439040707552 Z M 75.55986549534185,-8.925973157587222 L 75.37562940973696,-7.943091137830535 A 115.3311872235198 115.3311872235198 0 0 1 80.5602555265771,-6.84739967388021 L 79.87268454333977,-3.9272547899728947 L 87.48852208623371,-5.729758193644345 L 81.4770168375602,-10.740926185756628 L 80.78944585432288,-7.820781301849314 A 116.3311872235198 116.3311872235198 0 0 0 75.55986549534185,-8.925973157587222"/><text text-anchor="middle" pointer-events="none" font-size="8px" fill="#000000" x="52.358001857954264" y="-7.403812007731247" font-family="sans-serif">twowheeler</text></g><g class="relationship" transform="translate(41.81710774790368 167.3034971469914) rotate(392.8576465680235)"><path class="outline" fill="#A5ABB6" stroke="none" d="M 24.018736134675446,6.953439040707552 L 24.277555179777966,5.987513214418485 A 124.12850122127274 124.12850122127274 0 0 0 44.96327318998229,9.688693272562631 L 44.87110175446727,10.684436425426412 A 125.12850122127274 125.12850122127274 0 0 1 24.018736134675446,6.953439040707552 Z M 64.26304497418485,10.970064432383765 L 64.20024018101937,9.972038602079039 A 124.12850122127274 124.12850122127274 0 0 0 84.98599188892162,6.881700536764717 L 84.29521701598335,3.9623118893049196 L 91.91302787848419,5.75645727448543 L 85.90702505283929,10.77421873337778 L 85.21625017990102,7.854830085917982 A 125.12850122127274 125.12850122127274 0 0 1 64.26304497418485,10.970064432383765"/><text text-anchor="middle" pointer-events="none" font-size="8px" fill="#000000" x="54.56889504292832" y="13.703572473105908" font-family="sans-serif">trek</text></g><g class="relationship" transform="translate(96.067159543531 -93.20486614898209) rotate(447.2005999985553)"><path class="outline" fill="#A5ABB6" stroke="none" d="M 25 0.5 L 43.432488006337515 0.5 L 43.432488006337515 -0.5 L 25 -0.5 Z M 62.768425506337515 0.5 L 81.20091351267503 0.5 L 81.20091351267503 3.5 L 88.20091351267503 0 L 81.20091351267503 -3.5 L 81.20091351267503 -0.5 L 62.768425506337515 -0.5 Z"/><text text-anchor="middle" pointer-events="none" font-size="8px" fill="#000000" x="53.100456756337515" y="3" font-family="sans-serif">trek</text></g><g class="relationship" transform="translate(96.067159543531 -93.20486614898209) rotate(447.2005999985553)"><path class="outline" fill="#A5ABB6" stroke="none" d="M 21.40063509461097,-12.933012701892217 L 21.90063509461097,-12.06698729810778 A 65.8749367851501 65.8749367851501 0 0 1 42.06392576577087,-19.642131565621185 L 41.87001016835515,-20.623149782107973 A 66.8749367851501 66.8749367851501 0 0 0 21.40063509461097,-12.933012701892217 Z M 63.936556512842095,-21.270734138160464 L 63.800504750208106,-20.280032408130594 A 65.8749367851501 65.8749367851501 0 0 1 84.37332561769547,-13.900366044001393 L 83.0282667726219,-11.218796223301332 L 90.85449834017454,-11.208823708946406 L 86.1667374111269,-17.475792471601473 L 84.82167856605334,-14.794222650901412 A 66.8749367851501 66.8749367851501 0 0 0 63.936556512842095,-21.270734138160464"/><text text-anchor="middle" pointer-events="none" font-size="8px" fill="#000000" x="52.89104423816795" y="-18.363991443305295" font-family="sans-serif">road</text></g><g class="relationship" transform="translate(101.59581408988115 19.86095892212971) rotate(516.4136907583763)"><path class="outline" fill="#A5ABB6" stroke="none" d="M 24.018736134675446,6.953439040707552 L 24.277555179777966,5.987513214418485 A 142.53412002875788 142.53412002875788 0 0 0 49.5945786602049,10.373593676256633 L 49.51338040846273,11.370291646513436 A 143.53412002875788 143.53412002875788 0 0 1 24.018736134675446,6.953439040707552 Z M 68.90032019394486,11.635825911008709 L 68.84644993527573,10.637277967627455 A 142.53412002875788 142.53412002875788 0 0 0 94.27410231280112,6.946224690589425 L 93.57730068482658,4.02826864375595 L 101.19880002674165,5.806680233121096 L 95.2031711501005,10.83683275303406 L 94.50636952212596,7.918876706200583 A 143.53412002875788 143.53412002875788 0 0 1 68.90032019394486,11.635825911008709"/><text text-anchor="middle" pointer-events="none" font-size="8px" fill="#000000" x="59.209209225748225" y="14.330831182491522" transform="rotate(180 59.209209225748225 11.330831182491522)" font-family="sans-serif">trek</text></g><g class="relationship" transform="translate(-13.433549787542887 70.08332324968738) rotate(420.3902379445347)"><path class="outline" fill="#A5ABB6" stroke="none" d="M 24.018736134675446,6.953439040707552 L 24.277555179777966,5.987513214418485 A 115.3311872235198 115.3311872235198 0 0 0 42.75783265543685,9.355536879725264 L 42.659250211730296,10.350665766750879 A 116.3311872235198 116.3311872235198 0 0 1 24.018736134675446,6.953439040707552 Z M 62.053850411314144,10.64697624928877 L 61.98571401837443,9.649300233762105 A 115.3311872235198 115.3311872235198 0 0 0 80.5602555265771,6.84739967388021 L 79.87268454333977,3.9272547899728947 L 87.48852208623371,5.729758193644345 L 81.4770168375602,10.740926185756628 L 80.78944585432288,7.820781301849314 A 116.3311872235198 116.3311872235198 0 0 1 62.053850411314144,10.64697624928877"/><text text-anchor="middle" pointer-events="none" font-size="8px" fill="#000000" x="52.35800185795428" y="13.403812007731247" font-family="sans-serif">trek</text></g><g class="relationship" transform="translate(101.59581408988115 19.86095892212971) rotate(408.4976825302126)"><path class="outline" fill="#A5ABB6" stroke="none" d="M 25 0.5 L 50.87362787404528 0.5 L 50.87362787404528 -0.5 L 25 -0.5 Z M 70.20956537404528 0.5 L 96.08319324809057 0.5 L 96.08319324809057 3.5 L 103.08319324809057 0 L 96.08319324809057 -3.5 L 96.08319324809057 -0.5 L 70.20956537404528 -0.5 Z"/><text text-anchor="middle" pointer-events="none" font-size="8px" fill="#000000" x="60.54159662404528" y="3" font-family="sans-serif">trek</text></g><g class="relationship" transform="translate(41.81710774790368 167.3034971469914) rotate(392.8576465680235)"><path class="outline" fill="#A5ABB6" stroke="none" d="M 24.018736134675446,-6.953439040707552 L 24.277555179777966,-5.987513214418485 A 124.12850122127274 124.12850122127274 0 0 1 31.604992165766234,-7.7145533020850365 L 31.405204180524223,-8.69439245263625 A 125.12850122127274 125.12850122127274 0 0 0 24.018736134675446,-6.953439040707552 Z M 77.78171180859472,-9.37748177965014 L 77.61086874515135,-8.392183526493625 A 124.12850122127274 124.12850122127274 0 0 1 84.98599188892162,-6.881700536764717 L 84.29521701598335,-3.9623118893049196 L 91.91302787848419,-5.75645727448543 L 85.90702505283929,-10.77421873337778 L 85.21625017990102,-7.854830085917982 A 125.12850122127274 125.12850122127274 0 0 0 77.78171180859472,-9.37748177965014"/><text text-anchor="middle" pointer-events="none" font-size="8px" fill="#000000" x="54.568895042928276" y="-7.703572473105893" font-family="sans-serif">twowheeler</text></g><g class="relationship" transform="translate(101.59581408988115 19.86095892212971) rotate(323.07431038887086)"><path class="outline" fill="#A5ABB6" stroke="none" d="M 25 0.5 L 44.65457614963527 0.5 L 44.65457614963527 -0.5 L 25 -0.5 Z M 63.99051364963527 0.5 L 83.64508979927054 0.5 L 83.64508979927054 3.5 L 90.64508979927054 0 L 83.64508979927054 -3.5 L 83.64508979927054 -0.5 L 63.99051364963527 -0.5 Z"/><text text-anchor="middle" pointer-events="none" font-size="8px" fill="#000000" x="54.32254489963527" y="3" font-family="sans-serif">trek</text></g><g class="relationship" transform="translate(-13.433549787542887 70.08332324968738) rotate(473.73751072832886)"><path class="outline" fill="#A5ABB6" stroke="none" d="M 24.018736134675446,-6.953439040707552 L 24.277555179777966,-5.987513214418485 A 131.04978045593765 131.04978045593765 0 0 1 33.32637594476482,-8.071556693351312 L 33.136605628576646,-9.053385205411246 A 132.04978045593765 132.04978045593765 0 0 0 24.018736134675446,-6.953439040707552 Z M 79.53121960592671,-9.717924573371448 L 79.36964807347903,-8.731063570036866 A 131.04978045593765 131.04978045593765 0 0 1 88.47444646815137,-6.907045847723958 L 87.78130424056741,-3.988218368694075 L 95.40056762381842,-5.776185229866359 L 89.39863610492998,-10.798815819763803 L 88.70549387734602,-7.879988340733919 A 132.04978045593765 132.04978045593765 0 0 0 79.53121960592671,-9.717924573371448"/><text text-anchor="middle" pointer-events="none" font-size="8px" fill="#000000" x="56.311656864893024" y="-7.9394334753383475" transform="rotate(180 56.311656864893024 -10.939433475338348)" font-family="sans-serif">twowheeler</text></g><g class="relationship" transform="translate(-61.6281584845712 179.67870173163575) rotate(353.17810012601126)"><path class="outline" fill="#A5ABB6" stroke="none" d="M 21.40063509461097,12.933012701892217 L 21.90063509461097,12.06698729810778 A 56.55178754849271 56.55178754849271 0 0 0 26.142465256678772,14.282214089024514 L 25.717473144951633,15.187411142140412 A 57.55178754849271 57.55178754849271 0 0 1 21.40063509461097,12.933012701892217 Z M 71.28184736280056,16.63396428954328 L 70.91512863184612,15.703632428126525 A 56.55178754849271 56.55178754849271 0 0 0 75.28893073550104,13.76193007784536 L 73.95674993510937,11.073939319850126 L 81.78293930422187,11.101506669930648 L 77.06517180268995,17.345917755172337 L 75.73299100229828,14.657926997177103 A 57.55178754849271 57.55178754849271 0 0 1 71.28184736280056,16.63396428954328"/><text text-anchor="middle" pointer-events="none" font-size="8px" fill="#000000" x="48.366191617155245" y="23.11476063277115" font-family="sans-serif">twowheeler</text></g><g class="relationship" transform="translate(-13.433549787542887 70.08332324968738) rotate(473.73751072832886)"><path class="outline" fill="#A5ABB6" stroke="none" d="M 24.018736134675446,6.953439040707552 L 24.277555179777966,5.987513214418485 A 131.04978045593765 131.04978045593765 0 0 0 46.702316786739814,9.947951511622847 L 46.61461410313705,10.944098207290125 A 132.04978045593765 132.04978045593765 0 0 1 24.018736134675446,6.953439040707552 Z M 66.00458782319899,11.221833051403394 L 65.94545214286724,10.223583097077466 A 131.04978045593765 131.04978045593765 0 0 0 88.47444646815137,6.907045847723958 L 87.78130424056741,3.988218368694075 L 95.40056762381842,5.776185229866359 L 89.39863610492998,10.798815819763803 L 88.70549387734602,7.879988340733919 A 132.04978045593765 132.04978045593765 0 0 1 66.00458782319899,11.221833051403394"/><text text-anchor="middle" pointer-events="none" font-size="8px" fill="#000000" x="56.311656864893024" y="13.939433475338348" transform="rotate(180 56.311656864893024 10.939433475338348)" font-family="sans-serif">trek</text></g><g class="relationship" transform="translate(-61.6281584845712 179.67870173163575) rotate(353.17810012601126)"><path class="outline" fill="#A5ABB6" stroke="none" d="M 25 0.5 L 38.92346239375773 0.5 L 38.92346239375773 -0.5 L 25 -0.5 Z M 58.25939989375773 0.5 L 72.18286228751546 0.5 L 72.18286228751546 3.5 L 79.18286228751546 0 L 72.18286228751546 -3.5 L 72.18286228751546 -0.5 L 58.25939989375773 -0.5 Z"/><text text-anchor="middle" pointer-events="none" font-size="8px" fill="#000000" x="48.59143114375773" y="3" font-family="sans-serif">trek</text></g><g class="relationship" transform="translate(-61.6281584845712 179.67870173163575) rotate(353.17810012601126)"><path class="outline" fill="#A5ABB6" stroke="none" d="M 21.40063509461097,-12.933012701892217 L 21.90063509461097,-12.06698729810778 A 56.55178754849271 56.55178754849271 0 0 1 37.578937600249596,-18.222505014427647 L 37.35617556540135,-19.197377865537092 A 57.55178754849271 57.55178754849271 0 0 0 21.40063509461097,-12.933012701892217 Z M 59.41222649375846,-19.897601459899434 L 59.25175019895842,-18.910561765253235 A 56.55178754849271 56.55178754849271 0 0 1 75.28893073550104,-13.76193007784536 L 73.95674993510937,-11.073939319850126 L 81.78293930422187,-11.101506669930648 L 77.06517180268995,-17.345917755172337 L 75.73299100229828,-14.657926997177103 A 57.55178754849271 57.55178754849271 0 0 0 59.41222649375846,-19.897601459899434"/><text text-anchor="middle" pointer-events="none" font-size="8px" fill="#000000" x="48.36619161715526" y="-17.11476063277115" font-family="sans-serif">road</text></g><g class="relationship" transform="translate(-61.6281584845712 179.67870173163575) rotate(405.22041405858636)"><path class="outline" fill="#A5ABB6" stroke="none" d="M 25 0.5 L 48.47346505605559 0.5 L 48.47346505605559 -0.5 L 25 -0.5 Z M 67.80940255605559 0.5 L 91.28286761211118 0.5 L 91.28286761211118 3.5 L 98.28286761211118 0 L 91.28286761211118 -3.5 L 91.28286761211118 -0.5 L 67.80940255605559 -0.5 Z"/><text text-anchor="middle" pointer-events="none" font-size="8px" fill="#000000" x="58.14143380605559" y="3" font-family="sans-serif">trek</text></g><g class="relationship" transform="translate(25.209994295965032 267.18756224489795) rotate(342.13884634701196)"><path class="outline" fill="#A5ABB6" stroke="none" d="M 25 0.5 L 46.85090473730865 0.5 L 46.85090473730865 -0.5 L 25 -0.5 Z M 66.18684223730865 0.5 L 88.0377469746173 0.5 L 88.0377469746173 3.5 L 95.0377469746173 0 L 88.0377469746173 -3.5 L 88.0377469746173 -0.5 L 66.18684223730865 -0.5 Z"/><text text-anchor="middle" pointer-events="none" font-size="8px" fill="#000000" x="56.51887348730865" y="3" font-family="sans-serif">trek</text></g></g><g class="layer nodes"><g class="node" transform="translate(96.067159543531,-93.20486614898209)"><circle class="outline" cx="0" cy="0" r="25" fill="#F16667" stroke="#eb2728" stroke-width="2px"/><text text-anchor="middle" pointer-events="none" font-family="sans-serif" dy="1.5625" font-size="25" fill="#FFFFFF"/><text text-anchor="middle" pointer-events="none" x="0" y="5" font-size="10px" fill="#FFFFFF" font-family="sans-serif"> Darjeeling</text></g><g class="node" transform="translate(139.46223059255274,230.3706204928875)"><circle class="outline" cx="0" cy="0" r="25" fill="#D9C8AE" stroke="#c0a378" stroke-width="2px"/><text text-anchor="middle" pointer-events="none" font-family="sans-serif" dy="1.5625" font-size="25" fill="#2A2C34"/><text text-anchor="middle" pointer-events="none" x="0" y="5" font-size="10px" fill="#2A2C34" font-family="sans-serif"> Sandak…</text></g><g class="node" transform="translate(194.0442761923978,-49.616149894810036)"><circle class="outline" cx="0" cy="0" r="25" fill="#8DCC93" stroke="#5db665" stroke-width="2px"/><text text-anchor="middle" pointer-events="none" font-family="sans-serif" dy="1.5625" font-size="25" fill="#2A2C34"/><text text-anchor="middle" pointer-events="none" x="0" y="5" font-size="10px" fill="#2A2C34" font-family="sans-serif"> Tumbling</text></g><g class="node" transform="translate(267.2447338072374,34.351018311665776)"><circle class="outline" cx="0" cy="0" r="25" fill="#8DCC93" stroke="#5db665" stroke-width="2px"/><text text-anchor="middle" pointer-events="none" font-family="sans-serif" dy="1.5625" font-size="25" fill="#2A2C34"/><text text-anchor="middle" pointer-events="none" x="0" y="5" font-size="10px" fill="#2A2C34" font-family="sans-serif"> Gairibus</text></g><g class="node" transform="translate(186.47018577771055,115.78616636638752)"><circle class="outline" cx="0" cy="0" r="25" fill="#8DCC93" stroke="#5db665" stroke-width="2px"/><text text-anchor="middle" pointer-events="none" font-family="sans-serif" dy="1.5625" font-size="25" fill="#2A2C34"/><text text-anchor="middle" pointer-events="none" x="0" y="5" font-size="10px" fill="#2A2C34" font-family="sans-serif"> BhikeBh…</text></g><g class="node" transform="translate(101.59581408988115,19.86095892212971)"><circle class="outline" cx="0" cy="0" r="25" fill="#F16667" stroke="#eb2728" stroke-width="2px"/><text text-anchor="middle" pointer-events="none" font-family="sans-serif" dy="1.5625" font-size="25" fill="#FFFFFF"/><text text-anchor="middle" pointer-events="none" x="0" y="5" font-size="10px" fill="#FFFFFF" font-family="sans-serif"> Rimbik</text></g><g class="node" transform="translate(-13.433549787542887,70.08332324968738)"><circle class="outline" cx="0" cy="0" r="25" fill="#8DCC93" stroke="#5db665" stroke-width="2px"/><text text-anchor="middle" pointer-events="none" font-family="sans-serif" dy="1.5625" font-size="25" fill="#2A2C34"/><text text-anchor="middle" pointer-events="none" x="0" y="5" font-size="10px" fill="#2A2C34" font-family="sans-serif"> Sirikhola</text></g><g class="node" transform="translate(41.81710774790368,167.3034971469914)"><circle class="outline" cx="0" cy="0" r="25" fill="#8DCC93" stroke="#5db665" stroke-width="2px"/><text text-anchor="middle" pointer-events="none" font-family="sans-serif" dy="1.5625" font-size="25" fill="#2A2C34"/><text text-anchor="middle" pointer-events="none" x="0" y="5" font-size="10px" fill="#2A2C34" font-family="sans-serif"> Gurdum</text></g><g class="node" transform="translate(-61.6281584845712,179.67870173163575)"><circle class="outline" cx="0" cy="0" r="25" fill="#8DCC93" stroke="#5db665" stroke-width="2px"/><text text-anchor="middle" pointer-events="none" font-family="sans-serif" dy="1.5625" font-size="25" fill="#2A2C34"/><text text-anchor="middle" pointer-events="none" x="0" y="5" font-size="10px" fill="#2A2C34" font-family="sans-serif"> Rammam</text></g><g class="node" transform="translate(25.209994295965032,267.18756224489795)"><circle class="outline" cx="0" cy="0" r="25" fill="#D9C8AE" stroke="#c0a378" stroke-width="2px"/><text text-anchor="middle" pointer-events="none" font-family="sans-serif" dy="1.5625" font-size="25" fill="#2A2C34"/><text text-anchor="middle" pointer-events="none" x="0" y="5" font-size="10px" fill="#2A2C34" font-family="sans-serif"> Sabargr…</text></g></g></svg>