<svg xmlns="http://www.w3.org/2000/svg" width="1284.1033935546875" height="1012.3596801757812" viewBox="-582.098876953125 -419.64520263671875 1284.1033935546875 1012.3596801757812"><title>Neo4j Graph Visualization</title><desc>Created using Neo4j (http://www.neo4j.com/)</desc><g class="layer relationships"><g class="relationship" transform="translate(292.9863423787812 74.02438211150749) rotate(305.3461512358892)"><path class="outline" fill="#A5ABB6" stroke="none" d="M 25 0.5 L 65.30489073722023 0.5 L 65.30489073722023 -0.5 L 25 -0.5 Z M 99.75020323722023 0.5 L 140.05509397444047 0.5 L 140.05509397444047 3.5 L 147.05509397444047 0 L 140.05509397444047 -3.5 L 140.05509397444047 -0.5 L 99.75020323722023 -0.5 Z"/><text text-anchor="middle" pointer-events="none" font-size="8px" fill="#000000" x="82.52754698722023" y="3" font-family="sans-serif">ORIGIN</text></g><g class="relationship" transform="translate(292.9863423787812 74.02438211150749) rotate(444.46432425779335)"><path class="outline" fill="#A5ABB6" stroke="none" d="M 25 0.5 L 41.46207491262882 0.5 L 41.46207491262882 -0.5 L 25 -0.5 Z M 100.64957491262882 0.5 L 117.11164982525764 0.5 L 117.11164982525764 3.5 L 124.11164982525764 0 L 117.11164982525764 -3.5 L 117.11164982525764 -0.5 L 100.64957491262882 -0.5 Z"/><text text-anchor="middle" pointer-events="none" font-size="8px" fill="#000000" x="71.05582491262882" y="3" font-family="sans-serif">DESTINATION</text></g><g class="relationship" transform="translate(396.60832615384976 121.96735151172628) rotate(268.75693467642924)"><path class="outline" fill="#A5ABB6" stroke="none" d="M 25 0.5 L 73.44123877319664 0.5 L 73.44123877319664 -0.5 L 25 -0.5 Z M 107.88655127319664 0.5 L 156.3277900463933 0.5 L 156.3277900463933 3.5 L 163.3277900463933 0 L 156.3277900463933 -3.5 L 156.3277900463933 -0.5 L 107.88655127319664 -0.5 Z"/><text text-anchor="middle" pointer-events="none" font-size="8px" fill="#000000" x="90.66389502319664" y="3" transform="rotate(180 90.66389502319664 0)" font-family="sans-serif">ORIGIN</text></g><g class="relationship" transform="translate(396.60832615384976 121.96735151172628) rotate(411.79016525848436)"><path class="outline" fill="#A5ABB6" stroke="none" d="M 25 0.5 L 42.78150191705407 0.5 L 42.78150191705407 -0.5 L 25 -0.5 Z M 101.96900191705407 0.5 L 119.75050383410814 0.5 L 119.75050383410814 3.5 L 126.75050383410814 0 L 119.75050383410814 -3.5 L 119.75050383410814 -0.5 L 101.96900191705407 -0.5 Z"/><text text-anchor="middle" pointer-events="none" font-size="8px" fill="#000000" x="72.37525191705407" y="3" font-family="sans-serif">DESTINATION</text></g><g class="relationship" transform="translate(352.40893181545147 81.30512273784866) rotate(285.20217965450945)"><path class="outline" fill="#A5ABB6" stroke="none" d="M 25 0.5 L 55.76451623877318 0.5 L 55.76451623877318 -0.5 L 25 -0.5 Z M 90.20982873877318 0.5 L 120.97434497754637 0.5 L 120.97434497754637 3.5 L 127.97434497754637 0 L 120.97434497754637 -3.5 L 120.97434497754637 -0.5 L 90.20982873877318 -0.5 Z"/><text text-anchor="middle" pointer-events="none" font-size="8px" fill="#000000" x="72.98717248877318" y="3" font-family="sans-serif">ORIGIN</text></g><g class="relationship" transform="translate(352.40893181545147 81.30512273784866) rotate(467.6986631869346)"><path class="outline" fill="#A5ABB6" stroke="none" d="M 25 0.5 L 40.98001755106168 0.5 L 40.98001755106168 -0.5 L 25 -0.5 Z M 100.16751755106168 0.5 L 116.14753510212336 0.5 L 116.14753510212336 3.5 L 123.14753510212336 0 L 116.14753510212336 -3.5 L 116.14753510212336 -0.5 L 100.16751755106168 -0.5 Z"/><text text-anchor="middle" pointer-events="none" font-size="8px" fill="#000000" x="70.57376755106168" y="3" transform="rotate(180 70.57376755106168 0)" font-family="sans-serif">DESTINATION</text></g><g class="relationship" transform="translate(352.73986900379106 -215.49693105395608) rotate(435.06810009748926)"><path class="outline" fill="#A5ABB6" stroke="none" d="M 25 0.5 L 56.47448422976673 0.5 L 56.47448422976673 -0.5 L 25 -0.5 Z M 90.91979672976673 0.5 L 122.39428095953346 0.5 L 122.39428095953346 3.5 L 129.39428095953346 0 L 122.39428095953346 -3.5 L 122.39428095953346 -0.5 L 90.91979672976673 -0.5 Z"/><text text-anchor="middle" pointer-events="none" font-size="8px" fill="#000000" x="73.69714047976673" y="3" font-family="sans-serif">ORIGIN</text></g><g class="relationship" transform="translate(352.73986900379106 -215.49693105395608) rotate(210.87062263385076)"><path class="outline" fill="#A5ABB6" stroke="none" d="M 25 0.5 L 53.782088885804384 0.5 L 53.782088885804384 -0.5 L 25 -0.5 Z M 112.96958888580438 0.5 L 141.75167777160877 0.5 L 141.75167777160877 3.5 L 148.75167777160877 0 L 141.75167777160877 -3.5 L 141.75167777160877 -0.5 L 112.96958888580438 -0.5 Z"/><text text-anchor="middle" pointer-events="none" font-size="8px" fill="#000000" x="83.37583888580438" y="3" transform="rotate(180 83.37583888580438 0)" font-family="sans-serif">DESTINATION</text></g><g class="relationship" transform="translate(527.6439090672246 37.10918254219394) rotate(217.43139964917088)"><path class="outline" fill="#A5ABB6" stroke="none" d="M 25 0.5 L 64.35747673537635 0.5 L 64.35747673537635 -0.5 L 25 -0.5 Z M 98.80278923537635 0.5 L 138.1602659707527 0.5 L 138.1602659707527 3.5 L 145.1602659707527 0 L 138.1602659707527 -3.5 L 138.1602659707527 -0.5 L 98.80278923537635 -0.5 Z"/><text text-anchor="middle" pointer-events="none" font-size="8px" fill="#000000" x="81.58013298537635" y="3" transform="rotate(180 81.58013298537635 0)" font-family="sans-serif">ORIGIN</text></g><g class="relationship" transform="translate(527.6439090672246 37.10918254219394) rotate(367.94938571728323)"><path class="outline" fill="#A5ABB6" stroke="none" d="M 25 0.5 L 35.97952954496684 0.5 L 35.97952954496684 -0.5 L 25 -0.5 Z M 95.16702954496684 0.5 L 106.14655908993367 0.5 L 106.14655908993367 3.5 L 113.14655908993367 0 L 106.14655908993367 -3.5 L 106.14655908993367 -0.5 L 95.16702954496684 -0.5 Z"/><text text-anchor="middle" pointer-events="none" font-size="8px" fill="#000000" x="65.57327954496684" y="3" font-family="sans-serif">DESTINATION</text></g><g class="relationship" transform="translate(567.9315682736508 -58.62978137627194) rotate(182.50907059047643)"><path class="outline" fill="#A5ABB6" stroke="none" d="M 25 0.5 L 67.06590769850058 0.5 L 67.06590769850058 -0.5 L 25 -0.5 Z M 101.51122019850058 0.5 L 143.57712789700116 0.5 L 143.57712789700116 3.5 L 150.57712789700116 0 L 143.57712789700116 -3.5 L 143.57712789700116 -0.5 L 101.51122019850058 -0.5 Z"/><text text-anchor="middle" pointer-events="none" font-size="8px" fill="#000000" x="84.28856394850058" y="3" transform="rotate(180 84.28856394850058 0)" font-family="sans-serif">ORIGIN</text></g><g class="relationship" transform="translate(567.9315682736508 -58.62978137627194) rotate(409.95157847478697)"><path class="outline" fill="#A5ABB6" stroke="none" d="M 25 0.5 L 41.918824353914104 0.5 L 41.918824353914104 -0.5 L 25 -0.5 Z M 101.1063243539141 0.5 L 118.02514870782821 0.5 L 118.02514870782821 3.5 L 125.02514870782821 0 L 118.02514870782821 -3.5 L 118.02514870782821 -0.5 L 101.1063243539141 -0.5 Z"/><text text-anchor="middle" pointer-events="none" font-size="8px" fill="#000000" x="71.5125743539141" y="3" font-family="sans-serif">DESTINATION</text></g><g class="relationship" transform="translate(454.8489678172498 135.7142375216976) rotate(252.85504765252813)"><path class="outline" fill="#A5ABB6" stroke="none" d="M 25 0.5 L 84.99018572734869 0.5 L 84.99018572734869 -0.5 L 25 -0.5 Z M 119.43549822734869 0.5 L 179.42568395469738 0.5 L 179.42568395469738 3.5 L 186.42568395469738 0 L 179.42568395469738 -3.5 L 179.42568395469738 -0.5 L 119.43549822734869 -0.5 Z"/><text text-anchor="middle" pointer-events="none" font-size="8px" fill="#000000" x="102.21284197734869" y="3" transform="rotate(180 102.21284197734869 0)" font-family="sans-serif">ORIGIN</text></g><g class="relationship" transform="translate(454.8489678172498 135.7142375216976) rotate(431.3405452044441)"><path class="outline" fill="#A5ABB6" stroke="none" d="M 25 0.5 L 25.68945514696764 0.5 L 25.68945514696764 -0.5 L 25 -0.5 Z M 78.65429889696765 0.5 L 79.34375404393528 0.5 L 79.34375404393528 3.5 L 86.34375404393528 0 L 79.34375404393528 -3.5 L 79.34375404393528 -0.5 L 78.65429889696765 -0.5 Z"/><text text-anchor="middle" pointer-events="none" font-size="8px" fill="#000000" x="52.17187702196764" y="3" font-family="sans-serif">DESTINAT…</text></g><g class="relationship" transform="translate(202.6514363047903 -164.85761924228325) rotate(387.42890414171734)"><path class="outline" fill="#A5ABB6" stroke="none" d="M 25 0.5 L 86.23708995426439 0.5 L 86.23708995426439 -0.5 L 25 -0.5 Z M 120.68240245426439 0.5 L 181.91949240852878 0.5 L 181.91949240852878 3.5 L 188.91949240852878 0 L 181.91949240852878 -3.5 L 181.91949240852878 -0.5 L 120.68240245426439 -0.5 Z"/><text text-anchor="middle" pointer-events="none" font-size="8px" fill="#000000" x="103.45974620426439" y="3" font-family="sans-serif">ORIGIN</text></g><g class="relationship" transform="translate(202.6514363047903 -164.85761924228325) rotate(270.39038509188964)"><path class="outline" fill="#A5ABB6" stroke="none" d="M 25 0.5 L 36.803627919597545 0.5 L 36.803627919597545 -0.5 L 25 -0.5 Z M 95.99112791959755 0.5 L 107.79475583919509 0.5 L 107.79475583919509 3.5 L 114.79475583919509 0 L 107.79475583919509 -3.5 L 107.79475583919509 -0.5 L 95.99112791959755 -0.5 Z"/><text text-anchor="middle" pointer-events="none" font-size="8px" fill="#000000" x="66.39737791959755" y="3" font-family="sans-serif">DESTINATION</text></g><g class="relationship" transform="translate(297.2777289456059 -238.20723307434082) rotate(421.009120107047)"><path class="outline" fill="#A5ABB6" stroke="none" d="M 25 0.5 L 77.53487859214107 0.5 L 77.53487859214107 -0.5 L 25 -0.5 Z M 111.98019109214107 0.5 L 164.51506968428214 0.5 L 164.51506968428214 3.5 L 171.51506968428214 0 L 164.51506968428214 -3.5 L 164.51506968428214 -0.5 L 111.98019109214107 -0.5 Z"/><text text-anchor="middle" pointer-events="none" font-size="8px" fill="#000000" x="94.75753484214107" y="3" font-family="sans-serif">ORIGIN</text></g><g class="relationship" transform="translate(297.2777289456059 -238.20723307434082) rotate(215.3476975323374)"><path class="outline" fill="#A5ABB6" stroke="none" d="M 25 0.5 L 26.328606151102342 0.5 L 26.328606151102342 -0.5 L 25 -0.5 Z M 81.51610615110235 0.5 L 82.84471230220468 0.5 L 82.84471230220468 3.5 L 89.84471230220468 0 L 82.84471230220468 -3.5 L 82.84471230220468 -0.5 L 81.51610615110235 -0.5 Z"/><text text-anchor="middle" pointer-events="none" font-size="8px" fill="#000000" x="53.92235615110234" y="3" transform="rotate(180 53.92235615110234 0)" font-family="sans-serif">DESTINATI…</text></g><g class="relationship" transform="translate(249.91657940910306 -201.61549083225577) rotate(403.4939016506047)"><path class="outline" fill="#A5ABB6" stroke="none" d="M 25 0.5 L 77.56575195432367 0.5 L 77.56575195432367 -0.5 L 25 -0.5 Z M 112.01106445432367 0.5 L 164.57681640864735 0.5 L 164.57681640864735 3.5 L 171.57681640864735 0 L 164.57681640864735 -3.5 L 164.57681640864735 -0.5 L 112.01106445432367 -0.5 Z"/><text text-anchor="middle" pointer-events="none" font-size="8px" fill="#000000" x="94.78840820432367" y="3" font-family="sans-serif">ORIGIN</text></g><g class="relationship" transform="translate(249.91657940910306 -201.61549083225577) rotate(245.79652811641319)"><path class="outline" fill="#A5ABB6" stroke="none" d="M 25 0.5 L 25.388090326009788 0.5 L 25.388090326009788 -0.5 L 25 -0.5 Z M 80.57559032600979 0.5 L 80.96368065201958 0.5 L 80.96368065201958 3.5 L 87.96368065201958 0 L 80.96368065201958 -3.5 L 80.96368065201958 -0.5 L 80.57559032600979 -0.5 Z"/><text text-anchor="middle" pointer-events="none" font-size="8px" fill="#000000" x="52.98184032600979" y="3" transform="rotate(180 52.98184032600979 0)" font-family="sans-serif">DESTINATI…</text></g><g class="relationship" transform="translate(535.1641161955498 -137.02571268098555) rotate(513.6316506926352)"><path class="outline" fill="#A5ABB6" stroke="none" d="M 25 0.5 L 58.880110301157316 0.5 L 58.880110301157316 -0.5 L 25 -0.5 Z M 93.32542280115732 0.5 L 127.20553310231463 0.5 L 127.20553310231463 3.5 L 134.20553310231463 0 L 127.20553310231463 -3.5 L 127.20553310231463 -0.5 L 93.32542280115732 -0.5 Z"/><text text-anchor="middle" pointer-events="none" font-size="8px" fill="#000000" x="76.10276655115732" y="3" transform="rotate(180 76.10276655115732 0)" font-family="sans-serif">ORIGIN</text></g><g class="relationship" transform="translate(535.1641161955498 -137.02571268098555) rotate(338.3909092481963)"><path class="outline" fill="#A5ABB6" stroke="none" d="M 25 0.5 L 41.0364529014073 0.5 L 41.0364529014073 -0.5 L 25 -0.5 Z M 100.2239529014073 0.5 L 116.2604058028146 0.5 L 116.2604058028146 3.5 L 123.2604058028146 0 L 116.2604058028146 -3.5 L 116.2604058028146 -0.5 L 100.2239529014073 -0.5 Z"/><text text-anchor="middle" pointer-events="none" font-size="8px" fill="#000000" x="70.6302029014073" y="3" font-family="sans-serif">DESTINATION</text></g><g class="relationship" transform="translate(520.1799218951085 -22.335990293520275) rotate(199.00972708249662)"><path class="outline" fill="#A5ABB6" stroke="none" d="M 25 0.5 L 46.78771546719294 0.5 L 46.78771546719294 -0.5 L 25 -0.5 Z M 81.23302796719294 0.5 L 103.02074343438588 0.5 L 103.02074343438588 3.5 L 110.02074343438588 0 L 103.02074343438588 -3.5 L 103.02074343438588 -0.5 L 81.23302796719294 -0.5 Z"/><text text-anchor="middle" pointer-events="none" font-size="8px" fill="#000000" x="64.01037171719294" y="3" transform="rotate(180 64.01037171719294 0)" font-family="sans-serif">ORIGIN</text></g><g class="relationship" transform="translate(520.1799218951085 -22.335990293520275) rotate(388.56476451424817)"><path class="outline" fill="#A5ABB6" stroke="none" d="M 25 0.5 L 49.0460604377174 0.5 L 49.0460604377174 -0.5 L 25 -0.5 Z M 108.2335604377174 0.5 L 132.2796208754348 0.5 L 132.2796208754348 3.5 L 139.2796208754348 0 L 132.2796208754348 -3.5 L 132.2796208754348 -0.5 L 108.2335604377174 -0.5 Z"/><text text-anchor="middle" pointer-events="none" font-size="8px" fill="#000000" x="78.6398104377174" y="3" font-family="sans-serif">DESTINATION</text></g><g class="relationship" transform="translate(433.0531306276406 -226.88470224369013) rotate(464.16654875808325)"><path class="outline" fill="#A5ABB6" stroke="none" d="M 25 0.5 L 62.07979073256273 0.5 L 62.07979073256273 -0.5 L 25 -0.5 Z M 96.52510323256273 0.5 L 133.60489396512546 0.5 L 133.60489396512546 3.5 L 140.60489396512546 0 L 133.60489396512546 -3.5 L 133.60489396512546 -0.5 L 96.52510323256273 -0.5 Z"/><text text-anchor="middle" pointer-events="none" font-size="8px" fill="#000000" x="79.30244698256273" y="3" transform="rotate(180 79.30244698256273 0)" font-family="sans-serif">ORIGIN</text></g><g class="relationship" transform="translate(433.0531306276406 -226.88470224369013) rotate(266.4309188966644)"><path class="outline" fill="#A5ABB6" stroke="none" d="M 25 0.5 L 48.945620258631905 0.5 L 48.945620258631905 -0.5 L 25 -0.5 Z M 108.1331202586319 0.5 L 132.0787405172638 0.5 L 132.0787405172638 3.5 L 139.0787405172638 0 L 132.0787405172638 -3.5 L 132.0787405172638 -0.5 L 108.1331202586319 -0.5 Z"/><text text-anchor="middle" pointer-events="none" font-size="8px" fill="#000000" x="78.5393702586319" y="3" transform="rotate(180 78.5393702586319 0)" font-family="sans-serif">DESTINATION</text></g><g class="relationship" transform="translate(488.926716228972 -188.61660173444224) rotate(488.247117283873)"><path class="outline" fill="#A5ABB6" stroke="none" d="M 25 0.5 L 57.14121559746235 0.5 L 57.14121559746235 -0.5 L 25 -0.5 Z M 91.58652809746235 0.5 L 123.7277436949247 0.5 L 123.7277436949247 3.5 L 130.7277436949247 0 L 123.7277436949247 -3.5 L 123.7277436949247 -0.5 L 91.58652809746235 -0.5 Z"/><text text-anchor="middle" pointer-events="none" font-size="8px" fill="#000000" x="74.36387184746235" y="3" transform="rotate(180 74.36387184746235 0)" font-family="sans-serif">ORIGIN</text></g><g class="relationship" transform="translate(488.926716228972 -188.61660173444224) rotate(299.47452621332644)"><path class="outline" fill="#A5ABB6" stroke="none" d="M 25 0.5 L 42.662707065688764 0.5 L 42.662707065688764 -0.5 L 25 -0.5 Z M 101.85020706568876 0.5 L 119.51291413137753 0.5 L 119.51291413137753 3.5 L 126.51291413137753 0 L 119.51291413137753 -3.5 L 119.51291413137753 -0.5 L 101.85020706568876 -0.5 Z"/><text text-anchor="middle" pointer-events="none" font-size="8px" fill="#000000" x="72.25645706568876" y="3" font-family="sans-serif">DESTINATION</text></g><g class="relationship" transform="translate(344.6828953866952 -274.7660267260315) rotate(437.07428617365304)"><path class="outline" fill="#A5ABB6" stroke="none" d="M 25 0.5 L 86.21192402888617 0.5 L 86.21192402888617 -0.5 L 25 -0.5 Z M 120.65723652888617 0.5 L 181.86916055777235 0.5 L 181.86916055777235 3.5 L 188.86916055777235 0 L 181.86916055777235 -3.5 L 181.86916055777235 -0.5 L 120.65723652888617 -0.5 Z"/><text text-anchor="middle" pointer-events="none" font-size="8px" fill="#000000" x="103.43458027888617" y="3" font-family="sans-serif">ORIGIN</text></g><g class="relationship" transform="translate(344.6828953866952 -274.7660267260315) rotate(191.95952118716838)"><path class="outline" fill="#A5ABB6" stroke="none" d="M 25 0.5 L 39.01082132045131 0.5 L 39.01082132045131 -0.5 L 25 -0.5 Z M 98.19832132045131 0.5 L 112.20914264090263 0.5 L 112.20914264090263 3.5 L 119.20914264090263 0 L 112.20914264090263 -3.5 L 112.20914264090263 -0.5 L 98.19832132045131 -0.5 Z"/><text text-anchor="middle" pointer-events="none" font-size="8px" fill="#000000" x="68.60457132045131" y="3" transform="rotate(180 68.60457132045131 0)" font-family="sans-serif">DESTINATION</text></g><g class="relationship" transform="translate(246.09574959348078 -64.36214941431928) rotate(359.2354725075329)"><path class="outline" fill="#A5ABB6" stroke="none" d="M 25 0.5 L 52.49737002209689 0.5 L 52.49737002209689 -0.5 L 25 -0.5 Z M 86.94268252209689 0.5 L 114.44005254419378 0.5 L 114.44005254419378 3.5 L 121.44005254419378 0 L 114.44005254419378 -3.5 L 114.44005254419378 -0.5 L 86.94268252209689 -0.5 Z"/><text text-anchor="middle" pointer-events="none" font-size="8px" fill="#000000" x="69.72002627209689" y="3" font-family="sans-serif">ORIGIN</text></g><g class="relationship" transform="translate(246.09574959348078 -64.36214941431928) rotate(534.7809500646961)"><path class="outline" fill="#A5ABB6" stroke="none" d="M 25 0.5 L 32.139582036110866 0.5 L 32.139582036110866 -0.5 L 25 -0.5 Z M 91.32708203611087 0.5 L 98.46666407222173 0.5 L 98.46666407222173 3.5 L 105.46666407222173 0 L 98.46666407222173 -3.5 L 98.46666407222173 -0.5 L 91.32708203611087 -0.5 Z"/><text text-anchor="middle" pointer-events="none" font-size="8px" fill="#000000" x="61.733332036110866" y="3" transform="rotate(180 61.733332036110866 0)" font-family="sans-serif">DESTINATION</text></g><g class="relationship" transform="translate(437.79741928202105 78.34556230406912) rotate(252.6214859176706)"><path class="outline" fill="#A5ABB6" stroke="none" d="M 25 0.5 L 55.06783766541885 0.5 L 55.06783766541885 -0.5 L 25 -0.5 Z M 89.51315016541885 0.5 L 119.5809878308377 0.5 L 119.5809878308377 3.5 L 126.5809878308377 0 L 119.5809878308377 -3.5 L 119.5809878308377 -0.5 L 89.51315016541885 -0.5 Z"/><text text-anchor="middle" pointer-events="none" font-size="8px" fill="#000000" x="72.29049391541885" y="3" transform="rotate(180 72.29049391541885 0)" font-family="sans-serif">ORIGIN</text></g><g class="relationship" transform="translate(437.79741928202105 78.34556230406912) rotate(432.07679170414593)"><path class="outline" fill="#A5ABB6" stroke="none" d="M 25 0.5 L 52.48955177904777 0.5 L 52.48955177904777 -0.5 L 25 -0.5 Z M 111.67705177904777 0.5 L 139.16660355809555 0.5 L 139.16660355809555 3.5 L 146.16660355809555 0 L 139.16660355809555 -3.5 L 139.16660355809555 -0.5 L 111.67705177904777 -0.5 Z"/><text text-anchor="middle" pointer-events="none" font-size="8px" fill="#000000" x="82.08330177904777" y="3" font-family="sans-serif">DESTINATION</text></g><g class="relationship" transform="translate(575.3144011449522 0.8031653251634449) rotate(200.16273632543619)"><path class="outline" fill="#A5ABB6" stroke="none" d="M 25 0.5 L 76.63978539680353 0.5 L 76.63978539680353 -0.5 L 25 -0.5 Z M 111.08509789680353 0.5 L 162.72488329360706 0.5 L 162.72488329360706 3.5 L 169.72488329360706 0 L 162.72488329360706 -3.5 L 162.72488329360706 -0.5 L 111.08509789680353 -0.5 Z"/><text text-anchor="middle" pointer-events="none" font-size="8px" fill="#000000" x="93.86244164680353" y="3" transform="rotate(180 93.86244164680353 0)" font-family="sans-serif">ORIGIN</text></g><g class="relationship" transform="translate(575.3144011449522 0.8031653251634449) rotate(391.8635532094088)"><path class="outline" fill="#A5ABB6" stroke="none" d="M 25 0.5 L 27.31511176572019 0.5 L 27.31511176572019 -0.5 L 25 -0.5 Z M 70.65104926572019 0.5 L 72.96616103144038 0.5 L 72.96616103144038 3.5 L 79.96616103144038 0 L 72.96616103144038 -3.5 L 72.96616103144038 -0.5 L 70.65104926572019 -0.5 Z"/><text text-anchor="middle" pointer-events="none" font-size="8px" fill="#000000" x="48.98308051572019" y="3" font-family="sans-serif">DESTIN…</text></g><g class="relationship" transform="translate(250.1307547788263 -4.572273341814199) rotate(336.5575412862413)"><path class="outline" fill="#A5ABB6" stroke="none" d="M 25 0.5 L 56.87854705475145 0.5 L 56.87854705475145 -0.5 L 25 -0.5 Z M 91.32385955475145 0.5 L 123.2024066095029 0.5 L 123.2024066095029 3.5 L 130.2024066095029 0 L 123.2024066095029 -3.5 L 123.2024066095029 -0.5 L 91.32385955475145 -0.5 Z"/><text text-anchor="middle" pointer-events="none" font-size="8px" fill="#000000" x="74.10120330475145" y="3" font-family="sans-serif">ORIGIN</text></g><g class="relationship" transform="translate(250.1307547788263 -4.572273341814199) rotate(199.6837888914299)"><path class="outline" fill="#A5ABB6" stroke="none" d="M 25 0.5 L 38.043482195879704 0.5 L 38.043482195879704 -0.5 L 25 -0.5 Z M 97.2309821958797 0.5 L 110.27446439175941 0.5 L 110.27446439175941 3.5 L 117.27446439175941 0 L 110.27446439175941 -3.5 L 110.27446439175941 -0.5 L 97.2309821958797 -0.5 Z"/><text text-anchor="middle" pointer-events="none" font-size="8px" fill="#000000" x="67.6372321958797" y="3" transform="rotate(180 67.6372321958797 0)" font-family="sans-serif">DESTINATION</text></g><g class="relationship" transform="translate(496.0641995196407 92.30707470453359) rotate(236.8654696685835)"><path class="outline" fill="#A5ABB6" stroke="none" d="M 25 0.5 L 73.99025951702124 0.5 L 73.99025951702124 -0.5 L 25 -0.5 Z M 108.43557201702124 0.5 L 157.4258315340425 0.5 L 157.4258315340425 3.5 L 164.4258315340425 0 L 157.4258315340425 -3.5 L 157.4258315340425 -0.5 L 108.43557201702124 -0.5 Z"/><text text-anchor="middle" pointer-events="none" font-size="8px" fill="#000000" x="91.21291576702124" y="3" transform="rotate(180 91.21291576702124 0)" font-family="sans-serif">ORIGIN</text></g><g class="relationship" transform="translate(496.0641995196407 92.30707470453359) rotate(452.1506331125871)"><path class="outline" fill="#A5ABB6" stroke="none" d="M 25 0.5 L 41.407900586247436 0.5 L 41.407900586247436 -0.5 L 25 -0.5 Z M 100.59540058624744 0.5 L 117.00330117249487 0.5 L 117.00330117249487 3.5 L 124.00330117249487 0 L 117.00330117249487 -3.5 L 117.00330117249487 -0.5 L 100.59540058624744 -0.5 Z"/><text text-anchor="middle" pointer-events="none" font-size="8px" fill="#000000" x="71.00165058624744" y="3" transform="rotate(180 71.00165058624744 0)" font-family="sans-serif">DESTINATION</text></g><g class="relationship" transform="translate(305.38514429876193 -178.982942885246) rotate(412.2812839453575)"><path class="outline" fill="#A5ABB6" stroke="none" d="M 25 0.5 L 50.49317517155259 0.5 L 50.49317517155259 -0.5 L 25 -0.5 Z M 84.9384876715526 0.5 L 110.43166284310519 0.5 L 110.43166284310519 3.5 L 117.43166284310519 0 L 110.43166284310519 -3.5 L 110.43166284310519 -0.5 L 84.9384876715526 -0.5 Z"/><text text-anchor="middle" pointer-events="none" font-size="8px" fill="#000000" x="67.7158314215526" y="3" font-family="sans-serif">ORIGIN</text></g><g class="relationship" transform="translate(305.38514429876193 -178.982942885246) rotate(230.9948369789181)"><path class="outline" fill="#A5ABB6" stroke="none" d="M 25 0.5 L 47.76323485657147 0.5 L 47.76323485657147 -0.5 L 25 -0.5 Z M 106.95073485657147 0.5 L 129.71396971314294 0.5 L 129.71396971314294 3.5 L 136.71396971314294 0 L 129.71396971314294 -3.5 L 129.71396971314294 -0.5 L 106.95073485657147 -0.5 Z"/><text text-anchor="middle" pointer-events="none" font-size="8px" fill="#000000" x="77.35698485657147" y="3" transform="rotate(180 77.35698485657147 0)" font-family="sans-serif">DESTINATION</text></g><g class="relationship" transform="translate(258.0253627561792 -142.28161869533585) rotate(389.458203113766)"><path class="outline" fill="#A5ABB6" stroke="none" d="M 25 0.5 L 56.511255874837644 0.5 L 56.511255874837644 -0.5 L 25 -0.5 Z M 90.95656837483764 0.5 L 122.46782424967529 0.5 L 122.46782424967529 3.5 L 129.4678242496753 0 L 122.46782424967529 -3.5 L 122.46782424967529 -0.5 L 90.95656837483764 -0.5 Z"/><text text-anchor="middle" pointer-events="none" font-size="8px" fill="#000000" x="73.73391212483764" y="3" font-family="sans-serif">ORIGIN</text></g><g class="relationship" transform="translate(258.0253627561792 -142.28161869533585) rotate(251.47016422866784)"><path class="outline" fill="#A5ABB6" stroke="none" d="M 25 0.5 L 52.52882600376333 0.5 L 52.52882600376333 -0.5 L 25 -0.5 Z M 111.71632600376333 0.5 L 139.24515200752666 0.5 L 139.24515200752666 3.5 L 146.24515200752666 0 L 139.24515200752666 -3.5 L 139.24515200752666 -0.5 L 111.71632600376333 -0.5 Z"/><text text-anchor="middle" pointer-events="none" font-size="8px" fill="#000000" x="82.12257600376333" y="3" transform="rotate(180 82.12257600376333 0)" font-family="sans-serif">DESTINATION</text></g><g class="relationship" transform="translate(-411.6129626166686 256.92272423995877) rotate(365.3640944165922)"><path class="outline" fill="#A5ABB6" stroke="none" d="M 25 0.5 L 57.65745861795892 0.5 L 57.65745861795892 -0.5 L 25 -0.5 Z M 92.10277111795892 0.5 L 124.76022973591785 0.5 L 124.76022973591785 3.5 L 131.76022973591785 0 L 124.76022973591785 -3.5 L 124.76022973591785 -0.5 L 92.10277111795892 -0.5 Z"/><text text-anchor="middle" pointer-events="none" font-size="8px" fill="#000000" x="74.88011486795892" y="3" font-family="sans-serif">ORIGIN</text></g><g class="relationship" transform="translate(-411.6129626166686 256.92272423995877) rotate(196.79105333759998)"><path class="outline" fill="#A5ABB6" stroke="none" d="M 25 0.5 L 40.79968647161965 0.5 L 40.79968647161965 -0.5 L 25 -0.5 Z M 99.98718647161965 0.5 L 115.7868729432393 0.5 L 115.7868729432393 3.5 L 122.7868729432393 0 L 115.7868729432393 -3.5 L 115.7868729432393 -0.5 L 99.98718647161965 -0.5 Z"/><text text-anchor="middle" pointer-events="none" font-size="8px" fill="#000000" x="70.39343647161965" y="3" transform="rotate(180 70.39343647161965 0)" font-family="sans-serif">DESTINATION</text></g><g class="relationship" transform="translate(-402.453541195032 361.1069974124514) rotate(328.6418552900448)"><path class="outline" fill="#A5ABB6" stroke="none" d="M 25 0.5 L 65.29968353777848 0.5 L 65.29968353777848 -0.5 L 25 -0.5 Z M 99.74499603777848 0.5 L 140.04467957555696 0.5 L 140.04467957555696 3.5 L 147.04467957555696 0 L 140.04467957555696 -3.5 L 140.04467957555696 -0.5 L 99.74499603777848 -0.5 Z"/><text text-anchor="middle" pointer-events="none" font-size="8px" fill="#000000" x="82.52233978777848" y="3" font-family="sans-serif">ORIGIN</text></g><g class="relationship" transform="translate(-402.453541195032 361.1069974124514) rotate(456.7762121313099)"><path class="outline" fill="#A5ABB6" stroke="none" d="M 25 0.5 L 34.624358975386514 0.5 L 34.624358975386514 -0.5 L 25 -0.5 Z M 93.81185897538651 0.5 L 103.43621795077303 0.5 L 103.43621795077303 3.5 L 110.43621795077303 0 L 103.43621795077303 -3.5 L 103.43621795077303 -0.5 L 93.81185897538651 -0.5 Z"/><text text-anchor="middle" pointer-events="none" font-size="8px" fill="#000000" x="64.21810897538651" y="3" transform="rotate(180 64.21810897538651 0)" font-family="sans-serif">DESTINATION</text></g><g class="relationship" transform="translate(-172.9221676233541 133.20539567715855) rotate(480.83994733290126)"><path class="outline" fill="#A5ABB6" stroke="none" d="M 25 0.5 L 59.857085560817865 0.5 L 59.857085560817865 -0.5 L 25 -0.5 Z M 94.30239806081786 0.5 L 129.15948362163573 0.5 L 129.15948362163573 3.5 L 136.15948362163573 0 L 129.15948362163573 -3.5 L 129.15948362163573 -0.5 L 94.30239806081786 -0.5 Z"/><text text-anchor="middle" pointer-events="none" font-size="8px" fill="#000000" x="77.07974181081786" y="3" transform="rotate(180 77.07974181081786 0)" font-family="sans-serif">ORIGIN</text></g><g class="relationship" transform="translate(-172.9221676233541 133.20539567715855) rotate(277.53299967382276)"><path class="outline" fill="#A5ABB6" stroke="none" d="M 25 0.5 L 50.27327827597577 0.5 L 50.27327827597577 -0.5 L 25 -0.5 Z M 109.46077827597577 0.5 L 134.73405655195154 0.5 L 134.73405655195154 3.5 L 141.73405655195154 0 L 134.73405655195154 -3.5 L 134.73405655195154 -0.5 L 109.46077827597577 -0.5 Z"/><text text-anchor="middle" pointer-events="none" font-size="8px" fill="#000000" x="79.86702827597577" y="3" font-family="sans-serif">DESTINATION</text></g><g class="relationship" transform="translate(-194.95571870324235 408.9015428504225) rotate(246.19429763308085)"><path class="outline" fill="#A5ABB6" stroke="none" d="M 25 0.5 L 54.32448269193746 0.5 L 54.32448269193746 -0.5 L 25 -0.5 Z M 88.76979519193746 0.5 L 118.09427788387492 0.5 L 118.09427788387492 3.5 L 125.09427788387492 0 L 118.09427788387492 -3.5 L 118.09427788387492 -0.5 L 88.76979519193746 -0.5 Z"/><text text-anchor="middle" pointer-events="none" font-size="8px" fill="#000000" x="71.54713894193746" y="3" transform="rotate(180 71.54713894193746 0)" font-family="sans-serif">ORIGIN</text></g><g class="relationship" transform="translate(-194.95571870324235 408.9015428504225) rotate(426.69503386018846)"><path class="outline" fill="#A5ABB6" stroke="none" d="M 25 0.5 L 51.18918936468971 0.5 L 51.18918936468971 -0.5 L 25 -0.5 Z M 110.37668936468971 0.5 L 136.56587872937942 0.5 L 136.56587872937942 3.5 L 143.56587872937942 0 L 136.56587872937942 -3.5 L 136.56587872937942 -0.5 L 110.37668936468971 -0.5 Z"/><text text-anchor="middle" pointer-events="none" font-size="8px" fill="#000000" x="80.78293936468971" y="3" font-family="sans-serif">DESTINATION</text></g><g class="relationship" transform="translate(-129.5814243922218 204.7552826379041) rotate(512.0535295419795)"><path class="outline" fill="#A5ABB6" stroke="none" d="M 25 0.5 L 50.56997655735678 0.5 L 50.56997655735678 -0.5 L 25 -0.5 Z M 85.01528905735678 0.5 L 110.58526561471356 0.5 L 110.58526561471356 3.5 L 117.58526561471356 0 L 110.58526561471356 -3.5 L 110.58526561471356 -0.5 L 85.01528905735678 -0.5 Z"/><text text-anchor="middle" pointer-events="none" font-size="8px" fill="#000000" x="67.79263280735678" y="3" transform="rotate(180 67.79263280735678 0)" font-family="sans-serif">ORIGIN</text></g><g class="relationship" transform="translate(-129.5814243922218 204.7552826379041) rotate(349.74969770603707)"><path class="outline" fill="#A5ABB6" stroke="none" d="M 25 0.5 L 35.88575716522621 0.5 L 35.88575716522621 -0.5 L 25 -0.5 Z M 95.07325716522621 0.5 L 105.95901433045242 0.5 L 105.95901433045242 3.5 L 112.95901433045242 0 L 105.95901433045242 -3.5 L 105.95901433045242 -0.5 L 95.07325716522621 -0.5 Z"/><text text-anchor="middle" pointer-events="none" font-size="8px" fill="#000000" x="65.47950716522621" y="3" font-family="sans-serif">DESTINATION</text></g><g class="relationship" transform="translate(-365.18170584675534 167.41911275986442) rotate(403.5306204150096)"><path class="outline" fill="#A5ABB6" stroke="none" d="M 25 0.5 L 54.89218038068111 0.5 L 54.89218038068111 -0.5 L 25 -0.5 Z M 89.33749288068111 0.5 L 119.22967326136222 0.5 L 119.22967326136222 3.5 L 126.22967326136222 0 L 119.22967326136222 -3.5 L 119.22967326136222 -0.5 L 89.33749288068111 -0.5 Z"/><text text-anchor="middle" pointer-events="none" font-size="8px" fill="#000000" x="72.11483663068111" y="3" font-family="sans-serif">ORIGIN</text></g><g class="relationship" transform="translate(-365.18170584675534 167.41911275986442) rotate(270.58642061632077)"><path class="outline" fill="#A5ABB6" stroke="none" d="M 25 0.5 L 52.138854593892205 0.5 L 52.138854593892205 -0.5 L 25 -0.5 Z M 111.3263545938922 0.5 L 138.4652091877844 0.5 L 138.4652091877844 3.5 L 145.4652091877844 0 L 138.4652091877844 -3.5 L 138.4652091877844 -0.5 L 111.3263545938922 -0.5 Z"/><text text-anchor="middle" pointer-events="none" font-size="8px" fill="#000000" x="81.7326045938922" y="3" font-family="sans-serif">DESTINATION</text></g><g class="relationship" transform="translate(-309.29543515004707 145.76058348350946) rotate(426.8650223282609)"><path class="outline" fill="#A5ABB6" stroke="none" d="M 25 0.5 L 47.68712292811033 0.5 L 47.68712292811033 -0.5 L 25 -0.5 Z M 82.13243542811033 0.5 L 104.81955835622065 0.5 L 104.81955835622065 3.5 L 111.81955835622065 0 L 104.81955835622065 -3.5 L 104.81955835622065 -0.5 L 82.13243542811033 -0.5 Z"/><text text-anchor="middle" pointer-events="none" font-size="8px" fill="#000000" x="64.90977917811033" y="3" font-family="sans-serif">ORIGIN</text></g><g class="relationship" transform="translate(-309.29543515004707 145.76058348350946) rotate(250.00556205886943)"><path class="outline" fill="#A5ABB6" stroke="none" d="M 25 0.5 L 46.077082900680026 0.5 L 46.077082900680026 -0.5 L 25 -0.5 Z M 105.26458290068003 0.5 L 126.34166580136005 0.5 L 126.34166580136005 3.5 L 133.34166580136005 0 L 126.34166580136005 -3.5 L 126.34166580136005 -0.5 L 105.26458290068003 -0.5 Z"/><text text-anchor="middle" pointer-events="none" font-size="8px" fill="#000000" x="75.67083290068003" y="3" transform="rotate(180 75.67083290068003 0)" font-family="sans-serif">DESTINATION</text></g><g class="relationship" transform="translate(-363.71297523588436 413.72293353905366) rotate(307.2713820375909)"><path class="outline" fill="#A5ABB6" stroke="none" d="M 25 0.5 L 68.5898901441233 0.5 L 68.5898901441233 -0.5 L 25 -0.5 Z M 103.0352026441233 0.5 L 146.6250927882466 0.5 L 146.6250927882466 3.5 L 153.6250927882466 0 L 146.6250927882466 -3.5 L 146.6250927882466 -0.5 L 103.0352026441233 -0.5 Z"/><text text-anchor="middle" pointer-events="none" font-size="8px" fill="#000000" x="85.8125463941233" y="3" font-family="sans-serif">ORIGIN</text></g><g class="relationship" transform="translate(-363.71297523588436 413.72293353905366) rotate(483.7569286180421)"><path class="outline" fill="#A5ABB6" stroke="none" d="M 25 0.5 L 26.959315422131418 0.5 L 26.959315422131418 -0.5 L 25 -0.5 Z M 64.51790917213143 0.5 L 66.47722459426284 0.5 L 66.47722459426284 3.5 L 73.47722459426284 0 L 66.47722459426284 -3.5 L 66.47722459426284 -0.5 L 64.51790917213143 -0.5 Z"/><text text-anchor="middle" pointer-events="none" font-size="8px" fill="#000000" x="45.73861229713142" y="3" transform="rotate(180 45.73861229713142 0)" font-family="sans-serif">DESTI…</text></g><g class="relationship" transform="translate(-304.5568797980546 423.19236868596613) rotate(287.91619863329055)"><path class="outline" fill="#A5ABB6" stroke="none" d="M 25 0.5 L 58.948293444715276 0.5 L 58.948293444715276 -0.5 L 25 -0.5 Z M 93.39360594471528 0.5 L 127.34189938943055 0.5 L 127.34189938943055 3.5 L 134.34189938943055 0 L 127.34189938943055 -3.5 L 127.34189938943055 -0.5 L 93.39360594471528 -0.5 Z"/><text text-anchor="middle" pointer-events="none" font-size="8px" fill="#000000" x="76.17094969471528" y="3" font-family="sans-serif">ORIGIN</text></g><g class="relationship" transform="translate(-304.5568797980546 423.19236868596613) rotate(507.55116719332415)"><path class="outline" fill="#A5ABB6" stroke="none" d="M 25 0.5 L 34.37925222891285 0.5 L 34.37925222891285 -0.5 L 25 -0.5 Z M 93.56675222891285 0.5 L 102.9460044578257 0.5 L 102.9460044578257 3.5 L 109.9460044578257 0 L 102.9460044578257 -3.5 L 102.9460044578257 -0.5 L 93.56675222891285 -0.5 Z"/><text text-anchor="middle" pointer-events="none" font-size="8px" fill="#000000" x="63.97300222891285" y="3" transform="rotate(180 63.97300222891285 0)" font-family="sans-serif">DESTINATION</text></g><g class="relationship" transform="translate(-411.67023393763446 129.78241350753524) rotate(402.24507839847035)"><path class="outline" fill="#A5ABB6" stroke="none" d="M 25 0.5 L 84.73195340354405 0.5 L 84.73195340354405 -0.5 L 25 -0.5 Z M 119.17726590354405 0.5 L 178.9092193070881 0.5 L 178.9092193070881 3.5 L 185.9092193070881 0 L 178.9092193070881 -3.5 L 178.9092193070881 -0.5 L 119.17726590354405 -0.5 Z"/><text text-anchor="middle" pointer-events="none" font-size="8px" fill="#000000" x="101.95460965354405" y="3" font-family="sans-serif">ORIGIN</text></g><g class="relationship" transform="translate(-411.67023393763446 129.78241350753524) rotate(289.9584040734466)"><path class="outline" fill="#A5ABB6" stroke="none" d="M 25 0.5 L 37.559422613883186 0.5 L 37.559422613883186 -0.5 L 25 -0.5 Z M 96.74692261388319 0.5 L 109.30634522776637 0.5 L 109.30634522776637 3.5 L 116.30634522776637 0 L 109.30634522776637 -3.5 L 109.30634522776637 -0.5 L 96.74692261388319 -0.5 Z"/><text text-anchor="middle" pointer-events="none" font-size="8px" fill="#000000" x="67.15317261388319" y="3" font-family="sans-serif">DESTINATION</text></g><g class="relationship" transform="translate(-300.09031646974626 86.56991383783743) rotate(436.46055467552156)"><path class="outline" fill="#A5ABB6" stroke="none" d="M 25 0.5 L 74.42532744309213 0.5 L 74.42532744309213 -0.5 L 25 -0.5 Z M 108.87063994309213 0.5 L 158.29596738618426 0.5 L 158.29596738618426 3.5 L 165.29596738618426 0 L 158.29596738618426 -3.5 L 158.29596738618426 -0.5 L 108.87063994309213 -0.5 Z"/><text text-anchor="middle" pointer-events="none" font-size="8px" fill="#000000" x="91.64798369309213" y="3" font-family="sans-serif">ORIGIN</text></g><g class="relationship" transform="translate(-300.09031646974626 86.56991383783743) rotate(234.74203126833032)"><path class="outline" fill="#A5ABB6" stroke="none" d="M 25 0.5 L 27.03262184559574 0.5 L 27.03262184559574 -0.5 L 25 -0.5 Z M 75.70449684559574 0.5 L 77.73711869119148 0.5 L 77.73711869119148 3.5 L 84.73711869119148 0 L 77.73711869119148 -3.5 L 77.73711869119148 -0.5 L 75.70449684559574 -0.5 Z"/><text text-anchor="middle" pointer-events="none" font-size="8px" fill="#000000" x="51.36855934559574" y="3" transform="rotate(180 51.36855934559574 0)" font-family="sans-serif">DESTINA…</text></g><g class="relationship" transform="translate(-239.78433583915918 454.06951201434447) rotate(265.065782010646)"><path class="outline" fill="#A5ABB6" stroke="none" d="M 25 0.5 L 70.86282527874145 0.5 L 70.86282527874145 -0.5 L 25 -0.5 Z M 105.30813777874145 0.5 L 151.1709630574829 0.5 L 151.1709630574829 3.5 L 158.1709630574829 0 L 151.1709630574829 -3.5 L 151.1709630574829 -0.5 L 105.30813777874145 -0.5 Z"/><text text-anchor="middle" pointer-events="none" font-size="8px" fill="#000000" x="88.08548152874145" y="3" transform="rotate(180 88.08548152874145 0)" font-family="sans-serif">ORIGIN</text></g><g class="relationship" transform="translate(-239.78433583915918 454.06951201434447) rotate(404.51489965616105)"><path class="outline" fill="#A5ABB6" stroke="none" d="M 25 0.5 L 45.10179857235184 0.5 L 45.10179857235184 -0.5 L 25 -0.5 Z M 104.28929857235184 0.5 L 124.39109714470368 0.5 L 124.39109714470368 3.5 L 131.39109714470368 0 L 124.39109714470368 -3.5 L 124.39109714470368 -0.5 L 104.28929857235184 -0.5 Z"/><text text-anchor="middle" pointer-events="none" font-size="8px" fill="#000000" x="74.69554857235184" y="3" font-family="sans-serif">DESTINATION</text></g><g class="relationship" transform="translate(-78.15152417422038 332.8899824478767) rotate(199.06729382161234)"><path class="outline" fill="#A5ABB6" stroke="none" d="M 25 0.5 L 73.11981056678682 0.5 L 73.11981056678682 -0.5 L 25 -0.5 Z M 107.56512306678682 0.5 L 155.68493363357365 0.5 L 155.68493363357365 3.5 L 162.68493363357365 0 L 155.68493363357365 -3.5 L 155.68493363357365 -0.5 L 107.56512306678682 -0.5 Z"/><text text-anchor="middle" pointer-events="none" font-size="8px" fill="#000000" x="90.34246681678682" y="3" transform="rotate(180 90.34246681678682 0)" font-family="sans-serif">ORIGIN</text></g><g class="relationship" transform="translate(-78.15152417422038 332.8899824478767) rotate(414.3506885114389)"><path class="outline" fill="#A5ABB6" stroke="none" d="M 25 0.5 L 42.33231496374711 0.5 L 42.33231496374711 -0.5 L 25 -0.5 Z M 101.51981496374711 0.5 L 118.85212992749422 0.5 L 118.85212992749422 3.5 L 125.85212992749422 0 L 118.85212992749422 -3.5 L 118.85212992749422 -0.5 L 101.51981496374711 -0.5 Z"/><text text-anchor="middle" pointer-events="none" font-size="8px" fill="#000000" x="71.92606496374711" y="3" font-family="sans-serif">DESTINATION</text></g><g class="relationship" transform="translate(-104.35630884760752 276.50792120059725) rotate(181.8679371660878)"><path class="outline" fill="#A5ABB6" stroke="none" d="M 25 0.5 L 54.90899201549131 0.5 L 54.90899201549131 -0.5 L 25 -0.5 Z M 89.35430451549131 0.5 L 119.26329653098261 0.5 L 119.26329653098261 3.5 L 126.26329653098261 0 L 119.26329653098261 -3.5 L 119.26329653098261 -0.5 L 89.35430451549131 -0.5 Z"/><text text-anchor="middle" pointer-events="none" font-size="8px" fill="#000000" x="72.13164826549131" y="3" transform="rotate(180 72.13164826549131 0)" font-family="sans-serif">ORIGIN</text></g><g class="relationship" transform="translate(-104.35630884760752 276.50792120059725) rotate(385.0584514217771)"><path class="outline" fill="#A5ABB6" stroke="none" d="M 25 0.5 L 52.03135033941561 0.5 L 52.03135033941561 -0.5 L 25 -0.5 Z M 111.21885033941561 0.5 L 138.25020067883122 0.5 L 138.25020067883122 3.5 L 145.25020067883122 0 L 138.25020067883122 -3.5 L 138.25020067883122 -0.5 L 111.21885033941561 -0.5 Z"/><text text-anchor="middle" pointer-events="none" font-size="8px" fill="#000000" x="81.62510033941561" y="3" font-family="sans-serif">DESTINATION</text></g><g class="relationship" transform="translate(-342.6075859089134 357.83770539036135) rotate(315.26709682703637)"><path class="outline" fill="#A5ABB6" stroke="none" d="M 25 0.5 L 40.558960658071214 0.5 L 40.558960658071214 -0.5 L 25 -0.5 Z M 75.00427315807121 0.5 L 90.56323381614243 0.5 L 90.56323381614243 3.5 L 97.56323381614243 0 L 90.56323381614243 -3.5 L 90.56323381614243 -0.5 L 75.00427315807121 -0.5 Z"/><text text-anchor="middle" pointer-events="none" font-size="8px" fill="#000000" x="57.781616908071214" y="3" font-family="sans-serif">ORIGIN</text></g><g class="relationship" transform="translate(-342.6075859089134 357.83770539036135) rotate(478.8295081595417)"><path class="outline" fill="#A5ABB6" stroke="none" d="M 25 0.5 L 45.53081590299321 0.5 L 45.53081590299321 -0.5 L 25 -0.5 Z M 104.71831590299321 0.5 L 125.24913180598642 0.5 L 125.24913180598642 3.5 L 132.24913180598642 0 L 125.24913180598642 -3.5 L 125.24913180598642 -0.5 L 104.71831590299321 -0.5 Z"/><text text-anchor="middle" pointer-events="none" font-size="8px" fill="#000000" x="75.12456590299321" y="3" transform="rotate(180 75.12456590299321 0)" font-family="sans-serif">DESTINATION</text></g><g class="relationship" transform="translate(-137.53789121529795 426.25909750992827) rotate(232.66124538853103)"><path class="outline" fill="#A5ABB6" stroke="none" d="M 25 0.5 L 76.55369570558116 0.5 L 76.55369570558116 -0.5 L 25 -0.5 Z M 110.99900820558116 0.5 L 162.55270391116233 0.5 L 162.55270391116233 3.5 L 169.55270391116233 0 L 162.55270391116233 -3.5 L 162.55270391116233 -0.5 L 110.99900820558116 -0.5 Z"/><text text-anchor="middle" pointer-events="none" font-size="8px" fill="#000000" x="93.77635195558116" y="3" transform="rotate(180 93.77635195558116 0)" font-family="sans-serif">ORIGIN</text></g><g class="relationship" transform="translate(-137.53789121529795 426.25909750992827) rotate(446.14136862286523)"><path class="outline" fill="#A5ABB6" stroke="none" d="M 25 0.5 L 35.79009440400887 0.5 L 35.79009440400887 -0.5 L 25 -0.5 Z M 94.97759440400887 0.5 L 105.76768880801774 0.5 L 105.76768880801774 3.5 L 112.76768880801774 0 L 105.76768880801774 -3.5 L 105.76768880801774 -0.5 L 94.97759440400887 -0.5 Z"/><text text-anchor="middle" pointer-events="none" font-size="8px" fill="#000000" x="65.38384440400887" y="3" font-family="sans-serif">DESTINATION</text></g><g class="relationship" transform="translate(-355.9116313812955 108.24167679023243) rotate(418.4286060159395)"><path class="outline" fill="#A5ABB6" stroke="none" d="M 25 0.5 L 75.13291938805129 0.5 L 75.13291938805129 -0.5 L 25 -0.5 Z M 109.57823188805129 0.5 L 159.71115127610258 0.5 L 159.71115127610258 3.5 L 166.71115127610258 0 L 159.71115127610258 -3.5 L 159.71115127610258 -0.5 L 109.57823188805129 -0.5 Z"/><text text-anchor="middle" pointer-events="none" font-size="8px" fill="#000000" x="92.35557563805129" y="3" font-family="sans-serif">ORIGIN</text></g><g class="relationship" transform="translate(-355.9116313812955 108.24167679023243) rotate(266.1311777462689)"><path class="outline" fill="#A5ABB6" stroke="none" d="M 25 0.5 L 25.784084470900133 0.5 L 25.784084470900133 -0.5 L 25 -0.5 Z M 78.74892822090013 0.5 L 79.53301269180027 0.5 L 79.53301269180027 3.5 L 86.53301269180027 0 L 79.53301269180027 -3.5 L 79.53301269180027 -0.5 L 78.74892822090013 -0.5 Z"/><text text-anchor="middle" pointer-events="none" font-size="8px" fill="#000000" x="52.26650634590013" y="3" transform="rotate(180 52.26650634590013 0)" font-family="sans-serif">DESTINAT…</text></g><g class="relationship" transform="translate(-253.43533513981217 124.14291941553638) rotate(450.81755583848434)"><path class="outline" fill="#A5ABB6" stroke="none" d="M 25 0.5 L 53.00206985100212 0.5 L 53.00206985100212 -0.5 L 25 -0.5 Z M 87.44738235100212 0.5 L 115.44945220200424 0.5 L 115.44945220200424 3.5 L 122.44945220200424 0 L 115.44945220200424 -3.5 L 115.44945220200424 -0.5 L 87.44738235100212 -0.5 Z"/><text text-anchor="middle" pointer-events="none" font-size="8px" fill="#000000" x="70.22472610100212" y="3" transform="rotate(180 70.22472610100212 0)" font-family="sans-serif">ORIGIN</text></g><g class="relationship" transform="translate(-253.43533513981217 124.14291941553638) rotate(229.14253473923907)"><path class="outline" fill="#A5ABB6" stroke="none" d="M 25 0.5 L 50.98232787981733 0.5 L 50.98232787981733 -0.5 L 25 -0.5 Z M 110.16982787981733 0.5 L 136.15215575963467 0.5 L 136.15215575963467 3.5 L 143.15215575963467 0 L 136.15215575963467 -3.5 L 136.15215575963467 -0.5 L 110.16982787981733 -0.5 Z"/><text text-anchor="middle" pointer-events="none" font-size="8px" fill="#000000" x="80.57607787981733" y="3" transform="rotate(180 80.57607787981733 0)" font-family="sans-serif">DESTINATION</text></g><g class="relationship" transform="translate(-244.142874487249 65.0585625173856) rotate(453.1585563329408)"><path class="outline" fill="#A5ABB6" stroke="none" d="M 25 0.5 L 82.69384509414462 0.5 L 82.69384509414462 -0.5 L 25 -0.5 Z M 117.13915759414462 0.5 L 174.83300268828924 0.5 L 174.83300268828924 3.5 L 181.83300268828924 0 L 174.83300268828924 -3.5 L 174.83300268828924 -0.5 L 117.13915759414462 -0.5 Z"/><text text-anchor="middle" pointer-events="none" font-size="8px" fill="#000000" x="99.91650134414462" y="3" transform="rotate(180 99.91650134414462 0)" font-family="sans-serif">ORIGIN</text></g><g class="relationship" transform="translate(-244.142874487249 65.0585625173856) rotate(209.71867606550768)"><path class="outline" fill="#A5ABB6" stroke="none" d="M 25 0.5 L 35.58689507635755 0.5 L 35.58689507635755 -0.5 L 25 -0.5 Z M 94.77439507635755 0.5 L 105.3612901527151 0.5 L 105.3612901527151 3.5 L 112.3612901527151 0 L 105.3612901527151 -3.5 L 105.3612901527151 -0.5 L 94.77439507635755 -0.5 Z"/><text text-anchor="middle" pointer-events="none" font-size="8px" fill="#000000" x="65.18064507635755" y="3" transform="rotate(180 65.18064507635755 0)" font-family="sans-serif">DESTINATION</text></g><g class="relationship" transform="translate(-127.22207337009938 367.1109734178566) rotate(216.66811215555754)"><path class="outline" fill="#A5ABB6" stroke="none" d="M 25 0.5 L 59.26478456599678 0.5 L 59.26478456599678 -0.5 L 25 -0.5 Z M 93.71009706599678 0.5 L 127.97488163199355 0.5 L 127.97488163199355 3.5 L 134.97488163199355 0 L 127.97488163199355 -3.5 L 127.97488163199355 -0.5 L 93.71009706599678 -0.5 Z"/><text text-anchor="middle" pointer-events="none" font-size="8px" fill="#000000" x="76.48744081599678" y="3" transform="rotate(180 76.48744081599678 0)" font-family="sans-serif">ORIGIN</text></g><g class="relationship" transform="translate(-127.22207337009938 367.1109734178566) rotate(392.8227394303426)"><path class="outline" fill="#A5ABB6" stroke="none" d="M 25 0.5 L 48.41414552634818 0.5 L 48.41414552634818 -0.5 L 25 -0.5 Z M 107.60164552634818 0.5 L 131.01579105269636 0.5 L 131.01579105269636 3.5 L 138.01579105269636 0 L 131.01579105269636 -3.5 L 131.01579105269636 -0.5 L 107.60164552634818 -0.5 Z"/><text text-anchor="middle" pointer-events="none" font-size="8px" fill="#000000" x="78.00789552634818" y="3" font-family="sans-serif">DESTINATION</text></g><g class="relationship" transform="translate(-181.3932352085794 467.13371181956984) rotate(249.2355722273308)"><path class="outline" fill="#A5ABB6" stroke="none" d="M 25 0.5 L 83.8477916083279 0.5 L 83.8477916083279 -0.5 L 25 -0.5 Z M 118.2931041083279 0.5 L 177.1408957166558 0.5 L 177.1408957166558 3.5 L 184.1408957166558 0 L 177.1408957166558 -3.5 L 177.1408957166558 -0.5 L 118.2931041083279 -0.5 Z"/><text text-anchor="middle" pointer-events="none" font-size="8px" fill="#000000" x="101.0704478583279" y="3" transform="rotate(180 101.0704478583279 0)" font-family="sans-serif">ORIGIN</text></g><g class="relationship" transform="translate(-181.3932352085794 467.13371181956984) rotate(421.1860247094949)"><path class="outline" fill="#A5ABB6" stroke="none" d="M 25 0.5 L 25.131689601510487 0.5 L 25.131689601510487 -0.5 L 25 -0.5 Z M 78.09653335151049 0.5 L 78.22822295302097 0.5 L 78.22822295302097 3.5 L 85.22822295302097 0 L 78.22822295302097 -3.5 L 78.22822295302097 -0.5 L 78.09653335151049 -0.5 Z"/><text text-anchor="middle" pointer-events="none" font-size="8px" fill="#000000" x="51.61411147651049" y="3" font-family="sans-serif">DESTINAT…</text></g></g><g class="layer nodes"><g class="node" transform="translate(392.52276553629486,-66.31611748701157)"><circle class="outline" cx="0" cy="0" r="25" fill="#ECB5C9" stroke="#da7298" stroke-width="2px"/><text text-anchor="middle" pointer-events="none" font-family="sans-serif" dy="1.5625" font-size="25" fill="#2A2C34"/><text text-anchor="middle" pointer-events="none" x="0" y="5" font-size="10px" fill="#2A2C34" font-family="sans-serif"> LAX</text></g><g class="node" transform="translate(307.3704761813264,222.44062383848538)"><circle class="outline" cx="0" cy="0" r="25" fill="#ECB5C9" stroke="#da7298" stroke-width="2px"/><text text-anchor="middle" pointer-events="none" font-family="sans-serif" dy="1.5625" font-size="25" fill="#2A2C34"/><text text-anchor="middle" pointer-events="none" x="0" y="5" font-size="10px" fill="#2A2C34" font-family="sans-serif"> EWR</text></g><g class="node" transform="translate(490.4725801574294,241.20542107953318)"><circle class="outline" cx="0" cy="0" r="25" fill="#ECB5C9" stroke="#da7298" stroke-width="2px"/><text text-anchor="middle" pointer-events="none" font-family="sans-serif" dy="1.5625" font-size="25" fill="#2A2C34"/><text text-anchor="middle" pointer-events="none" x="0" y="5" font-size="10px" fill="#2A2C34" font-family="sans-serif"> SMF</text></g><g class="node" transform="translate(203.60392123150706,-304.6491301884224)"><circle class="outline" cx="0" cy="0" r="25" fill="#ECB5C9" stroke="#da7298" stroke-width="2px"/><text text-anchor="middle" pointer-events="none" font-family="sans-serif" dy="1.5625" font-size="25" fill="#2A2C34"/><text text-anchor="middle" pointer-events="none" x="0" y="5" font-size="10px" fill="#2A2C34" font-family="sans-serif"> ABQ</text></g><g class="node" transform="translate(664.4629661888661,56.21461100463771)"><circle class="outline" cx="0" cy="0" r="25" fill="#ECB5C9" stroke="#da7298" stroke-width="2px"/><text text-anchor="middle" pointer-events="none" font-family="sans-serif" dy="1.5625" font-size="25" fill="#2A2C34"/><text text-anchor="middle" pointer-events="none" x="0" y="5" font-size="10px" fill="#2A2C34" font-family="sans-serif"> FAT</text></g><g class="node" transform="translate(673.0044939780264,-191.62587917889462)"><circle class="outline" cx="0" cy="0" r="25" fill="#ECB5C9" stroke="#da7298" stroke-width="2px"/><text text-anchor="middle" pointer-events="none" font-family="sans-serif" dy="1.5625" font-size="25" fill="#2A2C34"/><text text-anchor="middle" pointer-events="none" x="0" y="5" font-size="10px" fill="#2A2C34" font-family="sans-serif"> IAH</text></g><g class="node" transform="translate(422.83891092860836,-390.6452066569078)"><circle class="outline" cx="0" cy="0" r="25" fill="#ECB5C9" stroke="#da7298" stroke-width="2px"/><text text-anchor="middle" pointer-events="none" font-family="sans-serif" dy="1.5625" font-size="25" fill="#2A2C34"/><text text-anchor="middle" pointer-events="none" x="0" y="5" font-size="10px" fill="#2A2C34" font-family="sans-serif"> BOS</text></g><g class="node" transform="translate(563.4766077850818,-320.5198875826517)"><circle class="outline" cx="0" cy="0" r="25" fill="#ECB5C9" stroke="#da7298" stroke-width="2px"/><text text-anchor="middle" pointer-events="none" font-family="sans-serif" dy="1.5625" font-size="25" fill="#2A2C34"/><text text-anchor="middle" pointer-events="none" x="0" y="5" font-size="10px" fill="#2A2C34" font-family="sans-serif"> LAS</text></g><g class="node" transform="translate(116.16997295426332,-52.49442011044149)"><circle class="outline" cx="0" cy="0" r="25" fill="#ECB5C9" stroke="#da7298" stroke-width="2px"/><text text-anchor="middle" pointer-events="none" font-family="sans-serif" dy="1.5625" font-size="25" fill="#2A2C34"/><text text-anchor="middle" pointer-events="none" x="0" y="5" font-size="10px" fill="#2A2C34" font-family="sans-serif"> TUS</text></g><g class="node" transform="translate(-255.53922605259794,271.57736110979664)"><circle class="outline" cx="0" cy="0" r="25" fill="#ECB5C9" stroke="#da7298" stroke-width="2px"/><text text-anchor="middle" pointer-events="none" font-family="sans-serif" dy="1.5625" font-size="25" fill="#2A2C34"/><text text-anchor="middle" pointer-events="none" x="0" y="5" font-size="10px" fill="#2A2C34" font-family="sans-serif"> LAX</text></g><g class="node" transform="translate(-553.0988857485631,214.22971111302203)"><circle class="outline" cx="0" cy="0" r="25" fill="#ECB5C9" stroke="#da7298" stroke-width="2px"/><text text-anchor="middle" pointer-events="none" font-family="sans-serif" dy="1.5625" font-size="25" fill="#2A2C34"/><text text-anchor="middle" pointer-events="none" x="0" y="5" font-size="10px" fill="#2A2C34" font-family="sans-serif"> BOS</text></g><g class="node" transform="translate(-418.4338910688459,495.5971366447378)"><circle class="outline" cx="0" cy="0" r="25" fill="#ECB5C9" stroke="#da7298" stroke-width="2px"/><text text-anchor="middle" pointer-events="none" font-family="sans-serif" dy="1.5625" font-size="25" fill="#2A2C34"/><text text-anchor="middle" pointer-events="none" x="0" y="5" font-size="10px" fill="#2A2C34" font-family="sans-serif"> FAT</text></g><g class="node" transform="translate(-151.0638003079843,-32.089665932605655)"><circle class="outline" cx="0" cy="0" r="25" fill="#ECB5C9" stroke="#da7298" stroke-width="2px"/><text text-anchor="middle" pointer-events="none" font-family="sans-serif" dy="1.5625" font-size="25" fill="#2A2C34"/><text text-anchor="middle" pointer-events="none" x="0" y="5" font-size="10px" fill="#2A2C34" font-family="sans-serif"> EWR</text></g><g class="node" transform="translate(-128.2668247480725,563.7144844762568)"><circle class="outline" cx="0" cy="0" r="25" fill="#ECB5C9" stroke="#da7298" stroke-width="2px"/><text text-anchor="middle" pointer-events="none" font-family="sans-serif" dy="1.5625" font-size="25" fill="#2A2C34"/><text text-anchor="middle" pointer-events="none" x="0" y="5" font-size="10px" fill="#2A2C34" font-family="sans-serif"> SMF</text></g><g class="node" transform="translate(6.175730793527418,180.20565023938568)"><circle class="outline" cx="0" cy="0" r="25" fill="#ECB5C9" stroke="#da7298" stroke-width="2px"/><text text-anchor="middle" pointer-events="none" font-family="sans-serif" dy="1.5625" font-size="25" fill="#2A2C34"/><text text-anchor="middle" pointer-events="none" x="0" y="5" font-size="10px" fill="#2A2C34" font-family="sans-serif"> IAH</text></g><g class="node" transform="translate(-363.4370299106829,-3.037167996560592)"><circle class="outline" cx="0" cy="0" r="25" fill="#ECB5C9" stroke="#da7298" stroke-width="2px"/><text text-anchor="middle" pointer-events="none" font-family="sans-serif" dy="1.5625" font-size="25" fill="#2A2C34"/><text text-anchor="middle" pointer-events="none" x="0" y="5" font-size="10px" fill="#2A2C34" font-family="sans-serif"> ABQ</text></g><g class="node" transform="translate(9.768498544238998,455.4723413289457)"><circle class="outline" cx="0" cy="0" r="25" fill="#ECB5C9" stroke="#da7298" stroke-width="2px"/><text text-anchor="middle" pointer-events="none" font-family="sans-serif" dy="1.5625" font-size="25" fill="#2A2C34"/><text text-anchor="middle" pointer-events="none" x="0" y="5" font-size="10px" fill="#2A2C34" font-family="sans-serif"> TUS</text></g><g class="node" transform="translate(49.86929141650241,348.6161388623678)"><circle class="outline" cx="0" cy="0" r="25" fill="#ECB5C9" stroke="#da7298" stroke-width="2px"/><text text-anchor="middle" pointer-events="none" font-family="sans-serif" dy="1.5625" font-size="25" fill="#2A2C34"/><text text-anchor="middle" pointer-events="none" x="0" y="5" font-size="10px" fill="#2A2C34" font-family="sans-serif"> LAS</text></g><g class="node" transform="translate(292.9863423787812,74.02438211150749)"><circle class="outline" cx="0" cy="0" r="25" fill="#4C8EDA" stroke="#2870c2" stroke-width="2px"/><text text-anchor="middle" pointer-events="none" font-family="sans-serif" dy="1.5625" font-size="25" fill="#FFFFFF"/><text text-anchor="middle" pointer-events="none" x="0" y="5" font-size="10px" fill="#FFFFFF" font-family="sans-serif"> 11/29/20…</text></g><g class="node" transform="translate(396.60832615384976,121.96735151172628)"><circle class="outline" cx="0" cy="0" r="25" fill="#4C8EDA" stroke="#2870c2" stroke-width="2px"/><text text-anchor="middle" pointer-events="none" font-family="sans-serif" dy="1.5625" font-size="25" fill="#FFFFFF"/><text text-anchor="middle" pointer-events="none" x="0" y="5" font-size="10px" fill="#FFFFFF" font-family="sans-serif"> 11/1/2015</text></g><g class="node" transform="translate(352.40893181545147,81.30512273784866)"><circle class="outline" cx="0" cy="0" r="25" fill="#4C8EDA" stroke="#2870c2" stroke-width="2px"/><text text-anchor="middle" pointer-events="none" font-family="sans-serif" dy="1.5625" font-size="25" fill="#FFFFFF"/><text text-anchor="middle" pointer-events="none" x="0" y="5" font-size="10px" fill="#FFFFFF" font-family="sans-serif"> 11/30/20…</text></g><g class="node" transform="translate(352.73986900379106,-215.49693105395608)"><circle class="outline" cx="0" cy="0" r="25" fill="#4C8EDA" stroke="#2870c2" stroke-width="2px"/><text text-anchor="middle" pointer-events="none" font-family="sans-serif" dy="1.5625" font-size="25" fill="#FFFFFF"/><text text-anchor="middle" pointer-events="none" x="0" y="5" font-size="10px" fill="#FFFFFF" font-family="sans-serif"> 11/1/2015</text></g><g class="node" transform="translate(527.6439090672246,37.10918254219394)"><circle class="outline" cx="0" cy="0" r="25" fill="#4C8EDA" stroke="#2870c2" stroke-width="2px"/><text text-anchor="middle" pointer-events="none" font-family="sans-serif" dy="1.5625" font-size="25" fill="#FFFFFF"/><text text-anchor="middle" pointer-events="none" x="0" y="5" font-size="10px" fill="#FFFFFF" font-family="sans-serif"> 11/4/2015</text></g><g class="node" transform="translate(567.9315682736508,-58.62978137627194)"><circle class="outline" cx="0" cy="0" r="25" fill="#4C8EDA" stroke="#2870c2" stroke-width="2px"/><text text-anchor="middle" pointer-events="none" font-family="sans-serif" dy="1.5625" font-size="25" fill="#FFFFFF"/><text text-anchor="middle" pointer-events="none" x="0" y="5" font-size="10px" fill="#FFFFFF" font-family="sans-serif"> 11/2/2015</text></g><g class="node" transform="translate(454.8489678172498,135.7142375216976)"><circle class="outline" cx="0" cy="0" r="25" fill="#4C8EDA" stroke="#2870c2" stroke-width="2px"/><text text-anchor="middle" pointer-events="none" font-family="sans-serif" dy="1.5625" font-size="25" fill="#FFFFFF"/><text text-anchor="middle" pointer-events="none" x="0" y="5" font-size="10px" fill="#FFFFFF" font-family="sans-serif"> 11/3/2015</text></g><g class="node" transform="translate(202.6514363047903,-164.85761924228325)"><circle class="outline" cx="0" cy="0" r="25" fill="#4C8EDA" stroke="#2870c2" stroke-width="2px"/><text text-anchor="middle" pointer-events="none" font-family="sans-serif" dy="1.5625" font-size="25" fill="#FFFFFF"/><text text-anchor="middle" pointer-events="none" x="0" y="5" font-size="10px" fill="#FFFFFF" font-family="sans-serif"> 11/3/2015</text></g><g class="node" transform="translate(297.2777289456059,-238.20723307434082)"><circle class="outline" cx="0" cy="0" r="25" fill="#4C8EDA" stroke="#2870c2" stroke-width="2px"/><text text-anchor="middle" pointer-events="none" font-family="sans-serif" dy="1.5625" font-size="25" fill="#FFFFFF"/><text text-anchor="middle" pointer-events="none" x="0" y="5" font-size="10px" fill="#FFFFFF" font-family="sans-serif"> 11/2/2015</text></g><g class="node" transform="translate(249.91657940910306,-201.61549083225577)"><circle class="outline" cx="0" cy="0" r="25" fill="#4C8EDA" stroke="#2870c2" stroke-width="2px"/><text text-anchor="middle" pointer-events="none" font-family="sans-serif" dy="1.5625" font-size="25" fill="#FFFFFF"/><text text-anchor="middle" pointer-events="none" x="0" y="5" font-size="10px" fill="#FFFFFF" font-family="sans-serif"> 11/1/2015</text></g><g class="node" transform="translate(535.1641161955498,-137.02571268098555)"><circle class="outline" cx="0" cy="0" r="25" fill="#4C8EDA" stroke="#2870c2" stroke-width="2px"/><text text-anchor="middle" pointer-events="none" font-family="sans-serif" dy="1.5625" font-size="25" fill="#FFFFFF"/><text text-anchor="middle" pointer-events="none" x="0" y="5" font-size="10px" fill="#FFFFFF" font-family="sans-serif"> 11/30/20…</text></g><g class="node" transform="translate(520.1799218951085,-22.335990293520275)"><circle class="outline" cx="0" cy="0" r="25" fill="#4C8EDA" stroke="#2870c2" stroke-width="2px"/><text text-anchor="middle" pointer-events="none" font-family="sans-serif" dy="1.5625" font-size="25" fill="#FFFFFF"/><text text-anchor="middle" pointer-events="none" x="0" y="5" font-size="10px" fill="#FFFFFF" font-family="sans-serif"> 11/1/2015</text></g><g class="node" transform="translate(433.0531306276406,-226.88470224369013)"><circle class="outline" cx="0" cy="0" r="25" fill="#4C8EDA" stroke="#2870c2" stroke-width="2px"/><text text-anchor="middle" pointer-events="none" font-family="sans-serif" dy="1.5625" font-size="25" fill="#FFFFFF"/><text text-anchor="middle" pointer-events="none" x="0" y="5" font-size="10px" fill="#FFFFFF" font-family="sans-serif"> 11/29/20…</text></g><g class="node" transform="translate(488.926716228972,-188.61660173444224)"><circle class="outline" cx="0" cy="0" r="25" fill="#4C8EDA" stroke="#2870c2" stroke-width="2px"/><text text-anchor="middle" pointer-events="none" font-family="sans-serif" dy="1.5625" font-size="25" fill="#FFFFFF"/><text text-anchor="middle" pointer-events="none" x="0" y="5" font-size="10px" fill="#FFFFFF" font-family="sans-serif"> 11/29/20…</text></g><g class="node" transform="translate(344.6828953866952,-274.7660267260315)"><circle class="outline" cx="0" cy="0" r="25" fill="#4C8EDA" stroke="#2870c2" stroke-width="2px"/><text text-anchor="middle" pointer-events="none" font-family="sans-serif" dy="1.5625" font-size="25" fill="#FFFFFF"/><text text-anchor="middle" pointer-events="none" x="0" y="5" font-size="10px" fill="#FFFFFF" font-family="sans-serif"> 11/4/2015</text></g><g class="node" transform="translate(246.09574959348078,-64.36214941431928)"><circle class="outline" cx="0" cy="0" r="25" fill="#4C8EDA" stroke="#2870c2" stroke-width="2px"/><text text-anchor="middle" pointer-events="none" font-family="sans-serif" dy="1.5625" font-size="25" fill="#FFFFFF"/><text text-anchor="middle" pointer-events="none" x="0" y="5" font-size="10px" fill="#FFFFFF" font-family="sans-serif"> 11/1/2015</text></g><g class="node" transform="translate(437.79741928202105,78.34556230406912)"><circle class="outline" cx="0" cy="0" r="25" fill="#4C8EDA" stroke="#2870c2" stroke-width="2px"/><text text-anchor="middle" pointer-events="none" font-family="sans-serif" dy="1.5625" font-size="25" fill="#FFFFFF"/><text text-anchor="middle" pointer-events="none" x="0" y="5" font-size="10px" fill="#FFFFFF" font-family="sans-serif"> 11/4/2015</text></g><g class="node" transform="translate(575.3144011449522,0.8031653251634449)"><circle class="outline" cx="0" cy="0" r="25" fill="#4C8EDA" stroke="#2870c2" stroke-width="2px"/><text text-anchor="middle" pointer-events="none" font-family="sans-serif" dy="1.5625" font-size="25" fill="#FFFFFF"/><text text-anchor="middle" pointer-events="none" x="0" y="5" font-size="10px" fill="#FFFFFF" font-family="sans-serif"> 11/3/2015</text></g><g class="node" transform="translate(250.1307547788263,-4.572273341814199)"><circle class="outline" cx="0" cy="0" r="25" fill="#4C8EDA" stroke="#2870c2" stroke-width="2px"/><text text-anchor="middle" pointer-events="none" font-family="sans-serif" dy="1.5625" font-size="25" fill="#FFFFFF"/><text text-anchor="middle" pointer-events="none" x="0" y="5" font-size="10px" fill="#FFFFFF" font-family="sans-serif"> 11/2/2015</text></g><g class="node" transform="translate(496.0641995196407,92.30707470453359)"><circle class="outline" cx="0" cy="0" r="25" fill="#4C8EDA" stroke="#2870c2" stroke-width="2px"/><text text-anchor="middle" pointer-events="none" font-family="sans-serif" dy="1.5625" font-size="25" fill="#FFFFFF"/><text text-anchor="middle" pointer-events="none" x="0" y="5" font-size="10px" fill="#FFFFFF" font-family="sans-serif"> 11/2/2015</text></g><g class="node" transform="translate(305.38514429876193,-178.982942885246)"><circle class="outline" cx="0" cy="0" r="25" fill="#4C8EDA" stroke="#2870c2" stroke-width="2px"/><text text-anchor="middle" pointer-events="none" font-family="sans-serif" dy="1.5625" font-size="25" fill="#FFFFFF"/><text text-anchor="middle" pointer-events="none" x="0" y="5" font-size="10px" fill="#FFFFFF" font-family="sans-serif"> 11/3/2015</text></g><g class="node" transform="translate(258.0253627561792,-142.28161869533585)"><circle class="outline" cx="0" cy="0" r="25" fill="#4C8EDA" stroke="#2870c2" stroke-width="2px"/><text text-anchor="middle" pointer-events="none" font-family="sans-serif" dy="1.5625" font-size="25" fill="#FFFFFF"/><text text-anchor="middle" pointer-events="none" x="0" y="5" font-size="10px" fill="#FFFFFF" font-family="sans-serif"> 11/2/2015</text></g><g class="node" transform="translate(-411.6129626166686,256.92272423995877)"><circle class="outline" cx="0" cy="0" r="25" fill="#4C8EDA" stroke="#2870c2" stroke-width="2px"/><text text-anchor="middle" pointer-events="none" font-family="sans-serif" dy="1.5625" font-size="25" fill="#FFFFFF"/><text text-anchor="middle" pointer-events="none" x="0" y="5" font-size="10px" fill="#FFFFFF" font-family="sans-serif"> 11/29/20…</text></g><g class="node" transform="translate(-402.453541195032,361.1069974124514)"><circle class="outline" cx="0" cy="0" r="25" fill="#4C8EDA" stroke="#2870c2" stroke-width="2px"/><text text-anchor="middle" pointer-events="none" font-family="sans-serif" dy="1.5625" font-size="25" fill="#FFFFFF"/><text text-anchor="middle" pointer-events="none" x="0" y="5" font-size="10px" fill="#FFFFFF" font-family="sans-serif"> 11/3/2015</text></g><g class="node" transform="translate(-172.9221676233541,133.20539567715855)"><circle class="outline" cx="0" cy="0" r="25" fill="#4C8EDA" stroke="#2870c2" stroke-width="2px"/><text text-anchor="middle" pointer-events="none" font-family="sans-serif" dy="1.5625" font-size="25" fill="#FFFFFF"/><text text-anchor="middle" pointer-events="none" x="0" y="5" font-size="10px" fill="#FFFFFF" font-family="sans-serif"> 11/29/20…</text></g><g class="node" transform="translate(-194.95571870324235,408.9015428504225)"><circle class="outline" cx="0" cy="0" r="25" fill="#4C8EDA" stroke="#2870c2" stroke-width="2px"/><text text-anchor="middle" pointer-events="none" font-family="sans-serif" dy="1.5625" font-size="25" fill="#FFFFFF"/><text text-anchor="middle" pointer-events="none" x="0" y="5" font-size="10px" fill="#FFFFFF" font-family="sans-serif"> 11/4/2015</text></g><g class="node" transform="translate(-129.5814243922218,204.7552826379041)"><circle class="outline" cx="0" cy="0" r="25" fill="#4C8EDA" stroke="#2870c2" stroke-width="2px"/><text text-anchor="middle" pointer-events="none" font-family="sans-serif" dy="1.5625" font-size="25" fill="#FFFFFF"/><text text-anchor="middle" pointer-events="none" x="0" y="5" font-size="10px" fill="#FFFFFF" font-family="sans-serif"> 11/30/20…</text></g><g class="node" transform="translate(-365.18170584675534,167.41911275986442)"><circle class="outline" cx="0" cy="0" r="25" fill="#4C8EDA" stroke="#2870c2" stroke-width="2px"/><text text-anchor="middle" pointer-events="none" font-family="sans-serif" dy="1.5625" font-size="25" fill="#FFFFFF"/><text text-anchor="middle" pointer-events="none" x="0" y="5" font-size="10px" fill="#FFFFFF" font-family="sans-serif"> 11/2/2015</text></g><g class="node" transform="translate(-309.29543515004707,145.76058348350946)"><circle class="outline" cx="0" cy="0" r="25" fill="#4C8EDA" stroke="#2870c2" stroke-width="2px"/><text text-anchor="middle" pointer-events="none" font-family="sans-serif" dy="1.5625" font-size="25" fill="#FFFFFF"/><text text-anchor="middle" pointer-events="none" x="0" y="5" font-size="10px" fill="#FFFFFF" font-family="sans-serif"> 11/1/2015</text></g><g class="node" transform="translate(-363.71297523588436,413.72293353905366)"><circle class="outline" cx="0" cy="0" r="25" fill="#4C8EDA" stroke="#2870c2" stroke-width="2px"/><text text-anchor="middle" pointer-events="none" font-family="sans-serif" dy="1.5625" font-size="25" fill="#FFFFFF"/><text text-anchor="middle" pointer-events="none" x="0" y="5" font-size="10px" fill="#FFFFFF" font-family="sans-serif"> 11/2/2015</text></g><g class="node" transform="translate(-304.5568797980546,423.19236868596613)"><circle class="outline" cx="0" cy="0" r="25" fill="#4C8EDA" stroke="#2870c2" stroke-width="2px"/><text text-anchor="middle" pointer-events="none" font-family="sans-serif" dy="1.5625" font-size="25" fill="#FFFFFF"/><text text-anchor="middle" pointer-events="none" x="0" y="5" font-size="10px" fill="#FFFFFF" font-family="sans-serif"> 11/4/2015</text></g><g class="node" transform="translate(-411.67023393763446,129.78241350753524)"><circle class="outline" cx="0" cy="0" r="25" fill="#4C8EDA" stroke="#2870c2" stroke-width="2px"/><text text-anchor="middle" pointer-events="none" font-family="sans-serif" dy="1.5625" font-size="25" fill="#FFFFFF"/><text text-anchor="middle" pointer-events="none" x="0" y="5" font-size="10px" fill="#FFFFFF" font-family="sans-serif"> 11/4/2015</text></g><g class="node" transform="translate(-300.09031646974626,86.56991383783743)"><circle class="outline" cx="0" cy="0" r="25" fill="#4C8EDA" stroke="#2870c2" stroke-width="2px"/><text text-anchor="middle" pointer-events="none" font-family="sans-serif" dy="1.5625" font-size="25" fill="#FFFFFF"/><text text-anchor="middle" pointer-events="none" x="0" y="5" font-size="10px" fill="#FFFFFF" font-family="sans-serif"> 11/3/2015</text></g><g class="node" transform="translate(-239.78433583915918,454.06951201434447)"><circle class="outline" cx="0" cy="0" r="25" fill="#4C8EDA" stroke="#2870c2" stroke-width="2px"/><text text-anchor="middle" pointer-events="none" font-family="sans-serif" dy="1.5625" font-size="25" fill="#FFFFFF"/><text text-anchor="middle" pointer-events="none" x="0" y="5" font-size="10px" fill="#FFFFFF" font-family="sans-serif"> 11/1/2015</text></g><g class="node" transform="translate(-78.15152417422038,332.8899824478767)"><circle class="outline" cx="0" cy="0" r="25" fill="#4C8EDA" stroke="#2870c2" stroke-width="2px"/><text text-anchor="middle" pointer-events="none" font-family="sans-serif" dy="1.5625" font-size="25" fill="#FFFFFF"/><text text-anchor="middle" pointer-events="none" x="0" y="5" font-size="10px" fill="#FFFFFF" font-family="sans-serif"> 11/1/2015</text></g><g class="node" transform="translate(-104.35630884760752,276.50792120059725)"><circle class="outline" cx="0" cy="0" r="25" fill="#4C8EDA" stroke="#2870c2" stroke-width="2px"/><text text-anchor="middle" pointer-events="none" font-family="sans-serif" dy="1.5625" font-size="25" fill="#FFFFFF"/><text text-anchor="middle" pointer-events="none" x="0" y="5" font-size="10px" fill="#FFFFFF" font-family="sans-serif"> 11/29/20…</text></g><g class="node" transform="translate(-342.6075859089134,357.83770539036135)"><circle class="outline" cx="0" cy="0" r="25" fill="#4C8EDA" stroke="#2870c2" stroke-width="2px"/><text text-anchor="middle" pointer-events="none" font-family="sans-serif" dy="1.5625" font-size="25" fill="#FFFFFF"/><text text-anchor="middle" pointer-events="none" x="0" y="5" font-size="10px" fill="#FFFFFF" font-family="sans-serif"> 11/1/2015</text></g><g class="node" transform="translate(-137.53789121529795,426.25909750992827)"><circle class="outline" cx="0" cy="0" r="25" fill="#4C8EDA" stroke="#2870c2" stroke-width="2px"/><text text-anchor="middle" pointer-events="none" font-family="sans-serif" dy="1.5625" font-size="25" fill="#FFFFFF"/><text text-anchor="middle" pointer-events="none" x="0" y="5" font-size="10px" fill="#FFFFFF" font-family="sans-serif"> 11/3/2015</text></g><g class="node" transform="translate(-355.9116313812955,108.24167679023243)"><circle class="outline" cx="0" cy="0" r="25" fill="#4C8EDA" stroke="#2870c2" stroke-width="2px"/><text text-anchor="middle" pointer-events="none" font-family="sans-serif" dy="1.5625" font-size="25" fill="#FFFFFF"/><text text-anchor="middle" pointer-events="none" x="0" y="5" font-size="10px" fill="#FFFFFF" font-family="sans-serif"> 11/2/2015</text></g><g class="node" transform="translate(-253.43533513981217,124.14291941553638)"><circle class="outline" cx="0" cy="0" r="25" fill="#4C8EDA" stroke="#2870c2" stroke-width="2px"/><text text-anchor="middle" pointer-events="none" font-family="sans-serif" dy="1.5625" font-size="25" fill="#FFFFFF"/><text text-anchor="middle" pointer-events="none" x="0" y="5" font-size="10px" fill="#FFFFFF" font-family="sans-serif"> 11/1/2015</text></g><g class="node" transform="translate(-244.142874487249,65.0585625173856)"><circle class="outline" cx="0" cy="0" r="25" fill="#4C8EDA" stroke="#2870c2" stroke-width="2px"/><text text-anchor="middle" pointer-events="none" font-family="sans-serif" dy="1.5625" font-size="25" fill="#FFFFFF"/><text text-anchor="middle" pointer-events="none" x="0" y="5" font-size="10px" fill="#FFFFFF" font-family="sans-serif"> 11/3/2015</text></g><g class="node" transform="translate(-127.22207337009938,367.1109734178566)"><circle class="outline" cx="0" cy="0" r="25" fill="#4C8EDA" stroke="#2870c2" stroke-width="2px"/><text text-anchor="middle" pointer-events="none" font-family="sans-serif" dy="1.5625" font-size="25" fill="#FFFFFF"/><text text-anchor="middle" pointer-events="none" x="0" y="5" font-size="10px" fill="#FFFFFF" font-family="sans-serif"> 11/2/2015</text></g><g class="node" transform="translate(-181.3932352085794,467.13371181956984)"><circle class="outline" cx="0" cy="0" r="25" fill="#4C8EDA" stroke="#2870c2" stroke-width="2px"/><text text-anchor="middle" pointer-events="none" font-family="sans-serif" dy="1.5625" font-size="25" fill="#FFFFFF"/><text text-anchor="middle" pointer-events="none" x="0" y="5" font-size="10px" fill="#FFFFFF" font-family="sans-serif"> 11/2/2015</text></g></g></svg>