<svg xmlns="http://www.w3.org/2000/svg" width="362.24188232421875" height="363.40020751953125" viewBox="-89.67938232421875 -75.57575988769531 362.24188232421875 363.40020751953125"><title>Neo4j Graph Visualization</title><desc>Created using Neo4j (http://www.neo4j.com/)</desc><g class="layer relationships"><g class="relationship" transform="translate(135.78368395913532 258.82442312523216) rotate(329.8894114047375)"><path class="outline" fill="#A5ABB6" stroke="none" d="M 21.40063509461097,12.933012701892217 L 21.90063509461097,12.06698729810778 A 57.528939676972975 57.528939676972975 0 0 0 24.220176517357526,13.336017629172886 L 23.760496075405545,14.224102023409621 A 58.528939676972975 58.528939676972975 0 0 1 21.40063509461097,12.933012701892217 Z M 74.24729313406436,15.813338593627442 L 73.84437812601674,14.89810119475763 A 57.528939676972975 57.528939676972975 0 0 0 76.23914196939485,13.777468994859202 L 74.90551559735168,11.090195153251141 L 82.73171866182086,11.113553100359802 L 78.01731046545241,17.360500783669952 L 76.68368409340924,14.673226942061891 A 58.528939676972975 58.528939676972975 0 0 1 74.24729313406436,15.813338593627442"/><text text-anchor="middle" pointer-events="none" font-size="8px" fill="#000000" x="48.839359154090864" y="23.245675225925503" font-family="sans-serif">PRODUCED</text></g><g class="relationship" transform="translate(135.78368395913532 258.82442312523216) rotate(329.8894114047375)"><path class="outline" fill="#A5ABB6" stroke="none" d="M 25 0.5 L 25.617521170944023 0.5 L 25.617521170944023 -0.5 L 25 -0.5 Z M 72.50814617094403 0.5 L 73.12566734188805 0.5 L 73.12566734188805 3.5 L 80.12566734188805 0 L 73.12566734188805 -3.5 L 73.12566734188805 -0.5 L 72.50814617094403 -0.5 Z"/><text text-anchor="middle" pointer-events="none" font-size="8px" fill="#000000" x="49.06283367094402" y="3" font-family="sans-serif">DIRECTED</text></g><g class="relationship" transform="translate(135.78368395913532 258.82442312523216) rotate(329.8894114047375)"><path class="outline" fill="#A5ABB6" stroke="none" d="M 21.40063509461097,-12.933012701892217 L 21.90063509461097,-12.06698729810778 A 57.528939676972975 57.528939676972975 0 0 1 31.49590448990736,-16.486782788851826 L 31.162694794911662,-17.42963553406757 A 58.528939676972975 58.528939676972975 0 0 0 21.40063509461097,-12.933012701892217 Z M 66.65813981870633,-18.54697041356942 L 66.38488978250413,-17.58502737070488 A 57.528939676972975 57.528939676972975 0 0 1 76.23914196939485,-13.777468994859202 L 74.90551559735168,-11.090195153251141 L 82.73171866182086,-11.113553100359802 L 78.01731046545241,-17.360500783669952 L 76.68368409340924,-14.673226942061891 A 58.528939676972975 58.528939676972975 0 0 0 66.65813981870633,-18.54697041356942"/><text text-anchor="middle" pointer-events="none" font-size="8px" fill="#000000" x="48.839359154090864" y="-17.245675225925503" font-family="sans-serif">WROTE</text></g><g class="relationship" transform="translate(243.56252012125864 17.016881181790303) rotate(205.11020401169185)"><path class="outline" fill="#A5ABB6" stroke="none" d="M 24.018736134675446,6.953439040707552 L 24.277555179777966,5.987513214418485 A 99.6860106834094 99.6860106834094 0 0 0 25.379314667135215,6.275993374258206 L 25.13154791994094,7.244813088645131 A 100.6860106834094 100.6860106834094 0 0 1 24.018736134675446,6.953439040707552 Z M 71.82099564840917,8.008562711782162 L 71.60504904146853,7.032157538224155 A 99.6860106834094 99.6860106834094 0 0 0 72.7156544912206,6.779867416373024 L 72.03439156191621,3.8582444391297948 L 79.64631859300555,5.677191077536639 L 73.62400506362647,10.675364719363998 L 72.94274213432207,7.753741742120768 A 100.6860106834094 100.6860106834094 0 0 1 71.82099564840917,8.008562711782162"/><text text-anchor="middle" pointer-events="none" font-size="8px" fill="#000000" x="48.43956193082503" y="12.87083012586315" transform="rotate(180 48.43956193082503 9.87083012586315)" font-family="sans-serif">DIRECTED</text></g><g class="relationship" transform="translate(243.56252012125864 17.016881181790303) rotate(205.11020401169185)"><path class="outline" fill="#A5ABB6" stroke="none" d="M 24.018736134675446,-6.953439040707552 L 24.277555179777966,-5.987513214418485 A 99.6860106834094 99.6860106834094 0 0 1 30.772970704328753,-7.497040536314572 L 30.579310405975356,-8.478109182659807 A 100.6860106834094 100.6860106834094 0 0 0 24.018736134675446,-6.953439040707552 Z M 66.33580996687043,-9.063016787974703 L 66.17434149094628,-8.076138917474637 A 99.6860106834094 99.6860106834094 0 0 1 72.7156544912206,-6.779867416373024 L 72.03439156191621,-3.8582444391297948 L 79.64631859300555,-5.677191077536639 L 73.62400506362647,-10.675364719363998 L 72.94274213432207,-7.753741742120768 A 100.6860106834094 100.6860106834094 0 0 0 66.33580996687043,-9.063016787974703"/><text text-anchor="middle" pointer-events="none" font-size="8px" fill="#000000" x="48.439561930824986" y="-6.870830125863151" transform="rotate(180 48.439561930824986 -9.87083012586315)" font-family="sans-serif">WROTE</text></g><g class="relationship" transform="translate(47.34102025805435 -46.57575933258079) rotate(370.7966024569919)"><path class="outline" fill="#A5ABB6" stroke="none" d="M 24.018736134675446,6.953439040707552 L 24.277555179777966,5.987513214418485 A 99.49034992699443 99.49034992699443 0 0 0 25.331624955026808,6.263772531088591 L 25.083400603540525,7.232475102226516 A 100.49034992699443 100.49034992699443 0 0 1 24.018736134675446,6.953439040707552 Z M 71.77161545338119,7.996878684518194 L 71.55523584156393,7.020569377182753 A 99.49034992699443 99.49034992699443 0 0 0 72.61778435819139,6.778964429069211 L 71.93660577665148,3.857321784930254 L 79.54848029143893,5.67648817949925 L 73.52602246691126,10.674487954587821 L 72.84484388537135,7.752845310448864 A 100.49034992699443 100.49034992699443 0 0 1 71.77161545338119,7.996878684518194"/><text text-anchor="middle" pointer-events="none" font-size="8px" fill="#000000" x="48.3906782351326" y="12.86416570218978" font-family="sans-serif">DIRECTED</text></g><g class="relationship" transform="translate(47.34102025805435 -46.57575933258079) rotate(370.7966024569919)"><path class="outline" fill="#A5ABB6" stroke="none" d="M 24.018736134675446,-6.953439040707552 L 24.277555179777966,-5.987513214418485 A 99.49034992699443 99.49034992699443 0 0 1 30.72471438765234,-7.4870619237434965 L 30.530697197328752,-8.468060053129548 A 100.49034992699443 100.49034992699443 0 0 0 24.018736134675446,-6.953439040707552 Z M 66.28679004588713,-9.05347728422521 L 66.12499105212405,-8.06665354838519 A 99.49034992699443 99.49034992699443 0 0 1 72.61778435819139,-6.778964429069211 L 71.93660577665148,-3.857321784930254 L 79.54848029143893,-5.67648817949925 L 73.52602246691126,-10.674487954587821 L 72.84484388537135,-7.752845310448864 A 100.49034992699443 100.49034992699443 0 0 0 66.28679004588713,-9.05347728422521"/><text text-anchor="middle" pointer-events="none" font-size="8px" fill="#000000" x="48.39067823513258" y="-6.86416570218978" font-family="sans-serif">WROTE</text></g><g class="relationship" transform="translate(-60.6793799473529 95.42783761915295) rotate(432.1755153226262)"><path class="outline" fill="#A5ABB6" stroke="none" d="M 21.40063509461097,12.933012701892217 L 21.90063509461097,12.06698729810778 A 57.14294720766715 57.14294720766715 0 0 0 31.314669192620688,16.415687933720143 L 30.979414529675104,17.357815478680607 A 58.14294720766715 58.14294720766715 0 0 1 21.40063509461097,12.933012701892217 Z M 66.46917075093891,18.47872650554318 L 66.19403743175305,17.51732042241609 A 57.14294720766715 57.14294720766715 0 0 0 75.8637338359287,13.771361710986268 L 74.5306756172894,11.083805983988553 L 82.35687356869659,11.108818488660848 L 77.64114479411444,17.35476934698322 L 76.30808657547514,14.667213619985505 A 58.14294720766715 58.14294720766715 0 0 1 66.46917075093891,18.47872650554318"/><text text-anchor="middle" pointer-events="none" font-size="8px" fill="#000000" x="48.65241707925152" y="23.193961103989658" font-family="sans-serif">WROTE</text></g><g class="relationship" transform="translate(-60.6793799473529 95.42783761915295) rotate(432.1755153226262)"><path class="outline" fill="#A5ABB6" stroke="none" d="M 25 0.5 L 25.431273146838763 0.5 L 25.431273146838763 -0.5 L 25 -0.5 Z M 72.32189814683876 0.5 L 72.75317129367753 0.5 L 72.75317129367753 3.5 L 79.75317129367753 0 L 72.75317129367753 -3.5 L 72.75317129367753 -0.5 L 72.32189814683876 -0.5 Z"/><text text-anchor="middle" pointer-events="none" font-size="8px" fill="#000000" x="48.87658564683876" y="3" font-family="sans-serif">DIRECTED</text></g><g class="relationship" transform="translate(-60.6793799473529 95.42783761915295) rotate(432.1755153226262)"><path class="outline" fill="#A5ABB6" stroke="none" d="M 21.40063509461097,-12.933012701892217 L 21.90063509461097,-12.06698729810778 A 57.14294720766715 57.14294720766715 0 0 1 24.047758203334176,-13.246005482022497 L 23.58533279851423,-14.132663671505405 A 58.14294720766715 58.14294720766715 0 0 0 21.40063509461097,-12.933012701892217 Z M 74.05203902714173,-15.726607770428494 L 73.64648802807596,-14.812535351439294 A 57.14294720766715 57.14294720766715 0 0 1 75.8637338359287,-13.771361710986268 L 74.5306756172894,-11.083805983988553 L 82.35687356869659,-11.108818488660848 L 77.64114479411444,-17.35476934698322 L 76.30808657547514,-14.667213619985505 A 58.14294720766715 58.14294720766715 0 0 0 74.05203902714173,-15.726607770428494"/><text text-anchor="middle" pointer-events="none" font-size="8px" fill="#000000" x="48.652417079251514" y="-17.193961103989658" font-family="sans-serif">PRODUCED</text></g></g><g class="layer nodes"><g class="node" transform="translate(135.78368395913532,258.82442312523216)"><circle class="outline" cx="0" cy="0" r="25" fill="#57C7E3" stroke="#23b3d7" stroke-width="2px"/><text text-anchor="middle" pointer-events="none" font-family="sans-serif" dy="1.5625" font-size="25" fill="#2A2C34"/><text text-anchor="middle" pointer-events="none" font-family="sans-serif" dy="1.5625" font-size="25" fill="#2A2C34"/><text text-anchor="middle" pointer-events="none" x="0" y="0" font-size="10px" fill="#2A2C34" font-family="sans-serif"> Cameron</text><text text-anchor="middle" pointer-events="none" x="0" y="10" font-size="10px" fill="#2A2C34" font-family="sans-serif"> Crowe</text></g><g class="node" transform="translate(226.72355957571483,206.08596508066705)"><circle class="outline" cx="0" cy="0" r="25" fill="#F79767" stroke="#f36924" stroke-width="2px"/><text text-anchor="middle" pointer-events="none" font-family="sans-serif" dy="1.5625" font-size="25" fill="#FFFFFF"/><text text-anchor="middle" pointer-events="none" font-family="sans-serif" dy="1.5625" font-size="25" fill="#FFFFFF"/><text text-anchor="middle" pointer-events="none" x="0" y="0" font-size="10px" fill="#FFFFFF" font-family="sans-serif"> Jerry</text><text text-anchor="middle" pointer-events="none" x="0" y="10" font-size="10px" fill="#FFFFFF" font-family="sans-serif"> Maguire</text></g><g class="node" transform="translate(243.56252012125864,17.016881181790303)"><circle class="outline" cx="0" cy="0" r="25" fill="#57C7E3" stroke="#23b3d7" stroke-width="2px"/><text text-anchor="middle" pointer-events="none" font-family="sans-serif" dy="1.5625" font-size="25" fill="#2A2C34"/><text text-anchor="middle" pointer-events="none" font-family="sans-serif" dy="1.5625" font-size="25" fill="#2A2C34"/><text text-anchor="middle" pointer-events="none" x="0" y="0" font-size="10px" fill="#2A2C34" font-family="sans-serif"> Lana</text><text text-anchor="middle" pointer-events="none" x="0" y="10" font-size="10px" fill="#2A2C34" font-family="sans-serif"> Wacho…</text></g><g class="node" transform="translate(149.3974018454725,-27.11373526413702)"><circle class="outline" cx="0" cy="0" r="25" fill="#F79767" stroke="#f36924" stroke-width="2px"/><text text-anchor="middle" pointer-events="none" font-family="sans-serif" dy="1.5625" font-size="25" fill="#FFFFFF"/><text text-anchor="middle" pointer-events="none" font-family="sans-serif" dy="1.5625" font-size="25" fill="#FFFFFF"/><text text-anchor="middle" pointer-events="none" x="0" y="0" font-size="10px" fill="#FFFFFF" font-family="sans-serif"> Speed</text><text text-anchor="middle" pointer-events="none" x="0" y="10" font-size="10px" fill="#FFFFFF" font-family="sans-serif"> Racer</text></g><g class="node" transform="translate(47.34102025805435,-46.57575933258079)"><circle class="outline" cx="0" cy="0" r="25" fill="#57C7E3" stroke="#23b3d7" stroke-width="2px"/><text text-anchor="middle" pointer-events="none" font-family="sans-serif" dy="1.5625" font-size="25" fill="#2A2C34"/><text text-anchor="middle" pointer-events="none" font-family="sans-serif" dy="1.5625" font-size="25" fill="#2A2C34"/><text text-anchor="middle" pointer-events="none" x="0" y="0" font-size="10px" fill="#2A2C34" font-family="sans-serif"> Lilly</text><text text-anchor="middle" pointer-events="none" x="0" y="10" font-size="10px" fill="#2A2C34" font-family="sans-serif"> Wacho…</text></g><g class="node" transform="translate(-60.6793799473529,95.42783761915295)"><circle class="outline" cx="0" cy="0" r="25" fill="#57C7E3" stroke="#23b3d7" stroke-width="2px"/><text text-anchor="middle" pointer-events="none" font-family="sans-serif" dy="1.5625" font-size="25" fill="#2A2C34"/><text text-anchor="middle" pointer-events="none" font-family="sans-serif" dy="1.5625" font-size="25" fill="#2A2C34"/><text text-anchor="middle" pointer-events="none" x="0" y="0" font-size="10px" fill="#2A2C34" font-family="sans-serif"> Nancy</text><text text-anchor="middle" pointer-events="none" x="0" y="10" font-size="10px" fill="#2A2C34" font-family="sans-serif"> Meyers</text></g><g class="node" transform="translate(-28.614208122071812,195.1527174230301)"><circle class="outline" cx="0" cy="0" r="25" fill="#F79767" stroke="#f36924" stroke-width="2px"/><text text-anchor="middle" pointer-events="none" font-family="sans-serif" dy="1.5625" font-size="25" fill="#FFFFFF"/><text text-anchor="middle" pointer-events="none" x="0" y="5" font-size="10px" fill="#FFFFFF" font-family="sans-serif"> Somethi…</text></g></g></svg>