<svg xmlns="http://www.w3.org/2000/svg" width="261.09820556640625" height="286.10931396484375" viewBox="-32.01860046386719 -43.04726028442383 261.09820556640625 286.10931396484375"><title>Neo4j Graph Visualization</title><desc>Created using Neo4j (http://www.neo4j.com/)</desc><g class="layer relationships"><g class="relationship" transform="translate(94.84966997080787 214.0620575063983) rotate(272.5853669298717)"><path class="outline" fill="#A5ABB6" stroke="none" d="M 25 0.5 L 30.807810296570693 0.5 L 30.807810296570693 -0.5 L 25 -0.5 Z M 76.3703102965707 0.5 L 82.17812059314139 0.5 L 82.17812059314139 3.5 L 89.17812059314139 0 L 82.17812059314139 -3.5 L 82.17812059314139 -0.5 L 76.3703102965707 -0.5 Z"/><text text-anchor="middle" pointer-events="none" font-size="8px" fill="#000000" x="53.58906029657069" y="3" font-family="sans-serif">ACTED_IN</text></g><g class="relationship" transform="translate(194.8563185813957 164.6309349635987) rotate(214.26873672562704)"><path class="outline" fill="#A5ABB6" stroke="none" d="M 25 0.5 L 31.109643734368724 0.5 L 31.109643734368724 -0.5 L 25 -0.5 Z M 76.67214373436872 0.5 L 82.78178746873745 0.5 L 82.78178746873745 3.5 L 89.78178746873745 0 L 82.78178746873745 -3.5 L 82.78178746873745 -0.5 L 76.67214373436872 -0.5 Z"/><text text-anchor="middle" pointer-events="none" font-size="8px" fill="#000000" x="53.890893734368724" y="3" transform="rotate(180 53.890893734368724 0)" font-family="sans-serif">ACTED_IN</text></g><g class="relationship" transform="translate(200.07960557122095 43.81338278470605) rotate(510.68923910740585)"><path class="outline" fill="#A5ABB6" stroke="none" d="M 25 0.5 L 30.44127339228647 0.5 L 30.44127339228647 -0.5 L 25 -0.5 Z M 77.33189839228646 0.5 L 82.77317178457294 0.5 L 82.77317178457294 3.5 L 89.77317178457294 0 L 82.77317178457294 -3.5 L 82.77317178457294 -0.5 L 77.33189839228646 -0.5 Z"/><text text-anchor="middle" pointer-events="none" font-size="8px" fill="#000000" x="53.88658589228647" y="3" transform="rotate(180 53.88658589228647 0)" font-family="sans-serif">DIRECTED</text></g><g class="relationship" transform="translate(104.68872456209266 -14.047259036420128) rotate(452.3542219446817)"><path class="outline" fill="#A5ABB6" stroke="none" d="M 25 0.5 L 35.68515932270964 0.5 L 35.68515932270964 -0.5 L 25 -0.5 Z M 71.45859682270964 0.5 L 82.14375614541927 0.5 L 82.14375614541927 3.5 L 89.14375614541927 0 L 82.14375614541927 -3.5 L 82.14375614541927 -0.5 L 71.45859682270964 -0.5 Z"/><text text-anchor="middle" pointer-events="none" font-size="8px" fill="#000000" x="53.57187807270964" y="3" transform="rotate(180 53.57187807270964 0)" font-family="sans-serif">WROTE</text></g><g class="relationship" transform="translate(1.7085434772670203 40.81017051063603) rotate(391.0558677888678)"><path class="outline" fill="#A5ABB6" stroke="none" d="M 25 0.5 L 35.9819679066299 0.5 L 35.9819679066299 -0.5 L 25 -0.5 Z M 71.7554054066299 0.5 L 82.7373733132598 0.5 L 82.7373733132598 3.5 L 89.7373733132598 0 L 82.7373733132598 -3.5 L 82.7373733132598 -0.5 L 71.7554054066299 -0.5 Z"/><text text-anchor="middle" pointer-events="none" font-size="8px" fill="#000000" x="53.8686866566299" y="3" font-family="sans-serif">WROTE</text></g><g class="relationship" transform="translate(-3.0186000395434927 150.58200681412126) rotate(333.84908809135925)"><path class="outline" fill="#A5ABB6" stroke="none" d="M 25 0.5 L 35.9965444079439 0.5 L 35.9965444079439 -0.5 L 25 -0.5 Z M 71.7699819079439 0.5 L 82.7665263158878 0.5 L 82.7665263158878 3.5 L 89.7665263158878 0 L 82.7665263158878 -3.5 L 82.7665263158878 -0.5 L 71.7699819079439 -0.5 Z"/><text text-anchor="middle" pointer-events="none" font-size="8px" fill="#000000" x="53.8832631579439" y="3" font-family="sans-serif">WROTE</text></g></g><g class="layer nodes"><g class="node selected" transform="translate(100,100.00015623006354)"><circle class="outline" cx="0" cy="0" r="25" fill="#F79767" stroke="#f36924" stroke-width="2px"/><text text-anchor="middle" pointer-events="none" font-family="sans-serif" dy="1.5625" font-size="25" fill="#FFFFFF"/><text text-anchor="middle" pointer-events="none" font-family="sans-serif" dy="1.5625" font-size="25" fill="#FFFFFF"/><text text-anchor="middle" pointer-events="none" font-family="sans-serif" dy="1.5625" font-size="25" fill="#FFFFFF"/><text text-anchor="middle" pointer-events="none" x="0" y="-5" font-size="10px" fill="#FFFFFF" font-family="sans-serif"> Captain</text><text text-anchor="middle" pointer-events="none" x="0" y="5" font-size="10px" fill="#FFFFFF" font-family="sans-serif"> America:</text><text text-anchor="middle" pointer-events="none" x="0" y="15" font-size="10px" fill="#FFFFFF" font-family="sans-serif"> The Fi…</text></g><g class="node" transform="translate(94.84966997080787,214.0620575063983)"><circle class="outline" cx="0" cy="0" r="25" fill="#57C7E3" stroke="#23b3d7" stroke-width="2px"/><text text-anchor="middle" pointer-events="none" font-family="sans-serif" dy="1.5625" font-size="25" fill="#2A2C34"/><text text-anchor="middle" pointer-events="none" font-family="sans-serif" dy="1.5625" font-size="25" fill="#2A2C34"/><text text-anchor="middle" pointer-events="none" x="0" y="0" font-size="10px" fill="#2A2C34" font-family="sans-serif"> Chris</text><text text-anchor="middle" pointer-events="none" x="0" y="10" font-size="10px" fill="#2A2C34" font-family="sans-serif"> Evans</text></g><g class="node" transform="translate(194.8563185813957,164.6309349635987)"><circle class="outline" cx="0" cy="0" r="25" fill="#57C7E3" stroke="#23b3d7" stroke-width="2px"/><text text-anchor="middle" pointer-events="none" font-family="sans-serif" dy="1.5625" font-size="25" fill="#2A2C34"/><text text-anchor="middle" pointer-events="none" font-family="sans-serif" dy="1.5625" font-size="25" fill="#2A2C34"/><text text-anchor="middle" pointer-events="none" x="0" y="0" font-size="10px" fill="#2A2C34" font-family="sans-serif"> Hayley</text><text text-anchor="middle" pointer-events="none" x="0" y="10" font-size="10px" fill="#2A2C34" font-family="sans-serif"> Atwell</text></g><g class="node" transform="translate(200.07960557122095,43.81338278470605)"><circle class="outline" cx="0" cy="0" r="25" fill="#57C7E3" stroke="#23b3d7" stroke-width="2px"/><text text-anchor="middle" pointer-events="none" font-family="sans-serif" dy="1.5625" font-size="25" fill="#2A2C34"/><text text-anchor="middle" pointer-events="none" font-family="sans-serif" dy="1.5625" font-size="25" fill="#2A2C34"/><text text-anchor="middle" pointer-events="none" x="0" y="0" font-size="10px" fill="#2A2C34" font-family="sans-serif"> Joe</text><text text-anchor="middle" pointer-events="none" x="0" y="10" font-size="10px" fill="#2A2C34" font-family="sans-serif"> Johnston</text></g><g class="node" transform="translate(104.68872456209266,-14.047259036420128)"><circle class="outline" cx="0" cy="0" r="25" fill="#57C7E3" stroke="#23b3d7" stroke-width="2px"/><text text-anchor="middle" pointer-events="none" font-family="sans-serif" dy="1.5625" font-size="25" fill="#2A2C34"/><text text-anchor="middle" pointer-events="none" x="0" y="5" font-size="10px" fill="#2A2C34" font-family="sans-serif"> Christop…</text></g><g class="node" transform="translate(1.7085434772670203,40.81017051063603)"><circle class="outline" cx="0" cy="0" r="25" fill="#57C7E3" stroke="#23b3d7" stroke-width="2px"/><text text-anchor="middle" pointer-events="none" font-family="sans-serif" dy="1.5625" font-size="25" fill="#2A2C34"/><text text-anchor="middle" pointer-events="none" font-family="sans-serif" dy="1.5625" font-size="25" fill="#2A2C34"/><text text-anchor="middle" pointer-events="none" x="0" y="0" font-size="10px" fill="#2A2C34" font-family="sans-serif"> Stephen</text><text text-anchor="middle" pointer-events="none" x="0" y="10" font-size="10px" fill="#2A2C34" font-family="sans-serif"> McFeely</text></g><g class="node" transform="translate(-3.0186000395434927,150.58200681412126)"><circle class="outline" cx="0" cy="0" r="25" fill="#57C7E3" stroke="#23b3d7" stroke-width="2px"/><text text-anchor="middle" pointer-events="none" font-family="sans-serif" dy="1.5625" font-size="25" fill="#2A2C34"/><text text-anchor="middle" pointer-events="none" font-family="sans-serif" dy="1.5625" font-size="25" fill="#2A2C34"/><text text-anchor="middle" pointer-events="none" font-family="sans-serif" dy="1.5625" font-size="25" fill="#2A2C34"/><text text-anchor="middle" pointer-events="none" x="0" y="-5" font-size="10px" fill="#2A2C34" font-family="sans-serif"> Samuel</text><text text-anchor="middle" pointer-events="none" x="0" y="5" font-size="10px" fill="#2A2C34" font-family="sans-serif"> L.</text><text text-anchor="middle" pointer-events="none" x="0" y="15" font-size="10px" fill="#2A2C34" font-family="sans-serif"> Jackson</text></g></g></svg>